<?xml version="1.0" standalone="no"?><!DOCTYPE svg PUBLIC "-//W3C//DTD SVG 1.1//EN" "http://www.w3.org/Graphics/SVG/1.1/DTD/svg11.dtd"><svg width="100%" height="100%" viewBox="0 0 1280 800" version="1.1" xmlns="http://www.w3.org/2000/svg" xmlns:xlink="http://www.w3.org/1999/xlink" xml:space="preserve" style="fill-rule:evenodd;clip-rule:evenodd;stroke-linejoin:round;stroke-miterlimit:1.41421;"><g id="bandes"><path d="M1266.32,0l13.68,0l0,800l-12.892,0l-0.788,-800ZM1250.42,0l0.788,800l-18.37,0l-0.788,-800l18.37,0ZM1216.16,0l0.788,800l-18.37,0l-0.788,-800l18.37,0ZM1181.89,0l0.788,800l-18.37,0l-0.787,-800l18.369,0ZM1147.63,0l0.788,800l-18.37,0l-0.788,-800l18.37,0ZM1113.36,0l0.788,800l-18.37,0l-0.788,-800l18.37,0ZM1079.1,0l0.787,800l-18.37,0l-0.787,-800l18.37,0ZM1044.83,0l0.788,800l-18.37,0l-0.788,-800l18.37,0ZM1010.57,0l0.788,800l-18.37,0l-0.788,-800l18.37,0ZM976.303,0l0.787,800l-18.37,0l-0.787,-800l18.37,0ZM942.037,0l0.788,800l-18.37,0l-0.788,-800l18.37,0ZM907.772,0l0.788,800l-18.37,0l-0.788,-800l18.37,0ZM873.507,0l0.787,800l-18.369,0l-0.788,-800l18.37,0ZM839.241,0l0.788,800l-18.37,0l-0.788,-800l18.37,0ZM804.976,0l0.788,800l-18.37,0l-0.788,-800l18.37,0ZM770.711,0l0.788,800l-18.37,0l-0.788,-800l18.37,0ZM736.445,0l0.788,800l-18.37,0l-0.787,-800l18.369,0ZM702.18,0l0.788,800l-18.37,0l-0.788,-800l18.37,0ZM667.915,0l0.788,800l-18.37,0l-0.788,-800l18.37,0ZM633.65,0l0.787,800l-18.37,0l-0.787,-800l18.37,0ZM599.384,0l0.788,800l-18.37,0l-0.788,-800l18.37,0ZM565.119,0l0.788,800l-18.37,0l-0.788,-800l18.37,0ZM530.854,0l0.787,800l-18.37,0l-0.787,-800l18.37,0ZM496.588,0l0.788,800l-18.37,0l-0.788,-800l18.37,0ZM462.323,0l0.788,800l-18.37,0l-0.788,-800l18.37,0ZM428.058,0l0.787,800l-18.37,0l-0.787,-800l18.37,0ZM393.792,0l0.788,800l-18.37,0l-0.788,-800l18.37,0ZM359.527,0l0.788,800l-18.37,0l-0.788,-800l18.37,0ZM325.262,0l0.787,800l-18.369,0l-0.788,-800l18.37,0ZM290.996,0l0.788,800l-18.37,0l-0.788,-800l18.37,0ZM256.731,0l0.788,800l-18.37,0l-0.788,-800l18.37,0ZM222.466,0l0.788,800l-18.37,0l-0.788,-800l18.37,0ZM188.2,0l0.788,800l-18.37,0l-0.787,-800l18.369,0ZM153.935,0l0.788,800l-18.37,0l-0.788,-800l18.37,0ZM119.67,0l0.788,800l-18.37,0l-0.788,-800l18.37,0ZM85.405,0l0.787,800l-18.37,0l-0.787,-800l18.37,0ZM51.139,0l0.788,800l-18.37,0l-0.788,-800l18.37,0ZM16.874,0l0.788,800l-17.662,0l0,-800l16.874,0Z" style="fill:#46b20f;"/><path d="M1267.77,0l0.788,800l-18.37,0l-0.787,-800l18.369,0ZM1233.51,0l0.788,800l-18.37,0l-0.788,-800l18.37,0ZM1199.24,0l0.788,800l-18.37,0l-0.788,-800l18.37,0ZM1164.98,0l0.787,800l-18.37,0l-0.787,-800l18.37,0ZM1130.71,0l0.788,800l-18.37,0l-0.788,-800l18.37,0ZM1096.45,0l0.788,800l-18.37,0l-0.788,-800l18.37,0ZM1062.18,0l0.787,800l-18.37,0l-0.787,-800l18.37,0ZM1027.92,0l0.788,800l-18.37,0l-0.788,-800l18.37,0ZM993.652,0l0.788,800l-18.37,0l-0.788,-800l18.37,0ZM959.387,0l0.787,800l-18.369,0l-0.788,-800l18.37,0ZM925.121,0l0.788,800l-18.37,0l-0.788,-800l18.37,0ZM890.856,0l0.788,800l-18.37,0l-0.788,-800l18.37,0ZM856.591,0l0.788,800l-18.37,0l-0.788,-800l18.37,0ZM822.325,0l0.788,800l-18.37,0l-0.787,-800l18.369,0ZM788.06,0l0.788,800l-18.37,0l-0.788,-800l18.37,0ZM753.795,0l0.788,800l-18.37,0l-0.788,-800l18.37,0ZM719.53,0l0.787,800l-18.37,0l-0.787,-800l18.37,0ZM685.264,0l0.788,800l-18.37,0l-0.788,-800l18.37,0ZM650.999,0l0.788,800l-18.37,0l-0.788,-800l18.37,0ZM616.734,0l0.787,800l-18.37,0l-0.787,-800l18.37,0ZM582.468,0l0.788,800l-18.37,0l-0.788,-800l18.37,0ZM548.203,0l0.788,800l-18.37,0l-0.788,-800l18.37,0ZM513.938,0l0.787,800l-18.37,0l-0.787,-800l18.37,0ZM479.672,0l0.788,800l-18.37,0l-0.788,-800l18.37,0ZM445.407,0l0.788,800l-18.37,0l-0.788,-800l18.37,0ZM411.142,0l0.788,800l-18.37,0l-0.788,-800l18.37,0ZM376.876,0l0.788,800l-18.37,0l-0.788,-800l18.37,0ZM342.611,0l0.788,800l-18.37,0l-0.788,-800l18.37,0ZM308.346,0l0.788,800l-18.37,0l-0.788,-800l18.37,0ZM274.08,0l0.788,800l-18.37,0l-0.787,-800l18.369,0ZM239.815,0l0.788,800l-18.37,0l-0.788,-800l18.37,0ZM205.55,0l0.788,800l-18.37,0l-0.788,-800l18.37,0ZM171.285,0l0.787,800l-18.37,0l-0.787,-800l18.37,0ZM137.019,0l0.788,800l-18.37,0l-0.788,-800l18.37,0ZM102.754,0l0.788,800l-18.37,0l-0.788,-800l18.37,0ZM68.489,0l0.787,800l-18.37,0l-0.787,-800l18.37,0ZM34.223,0l0.788,800l-18.37,0l-0.788,-800l18.37,0ZM0,44.648l0.744,755.352l-0.744,0l0,-755.352Z" style="fill:#45a700;"/></g></svg>