<?xml version="1.0" standalone="no"?><!DOCTYPE svg PUBLIC "-//W3C//DTD SVG 1.1//EN" "http://www.w3.org/Graphics/SVG/1.1/DTD/svg11.dtd"><svg width="100%" height="100%" viewBox="0 0 1280 800" version="1.1" xmlns="http://www.w3.org/2000/svg" xmlns:xlink="http://www.w3.org/1999/xlink" xml:space="preserve" style="fill-rule:evenodd;clip-rule:evenodd;stroke-linejoin:round;stroke-miterlimit:1.41421;"><g id="ticks"><path d="M1142.68,791.821l19.458,-13.633l-4.578,-5.682l-14.88,10.226l-5.723,-5.681l-5.723,4.545l11.446,10.225ZM1036.04,791.821l19.458,-13.633l-4.577,-5.682l-14.881,10.226l-5.723,-5.681l-5.722,4.545l11.445,10.225ZM289.586,791.821l19.458,-13.633l-4.578,-5.682l-14.88,10.226l-5.723,-5.681l-5.723,4.545l11.446,10.225ZM1249.31,791.821l19.458,-13.633l-4.577,-5.682l-14.881,10.226l-5.723,-5.681l-5.723,4.545l11.446,10.225ZM716.131,791.821l19.458,-13.633l-4.577,-5.682l-14.881,10.226l-5.723,-5.681l-5.723,4.545l11.446,10.225ZM822.767,791.821l19.459,-13.633l-4.578,-5.682l-14.881,10.226l-5.722,-5.681l-5.723,4.545l11.445,10.225ZM182.949,791.821l19.458,-13.633l-4.577,-5.682l-14.881,10.226l-5.723,-5.681l-5.722,4.545l11.445,10.225ZM609.495,791.821l19.458,-13.633l-4.578,-5.682l-14.88,10.226l-5.723,-5.681l-5.723,4.545l11.446,10.225ZM929.404,791.821l19.458,-13.633l-4.577,-5.682l-14.881,10.226l-5.723,-5.681l-5.723,4.545l11.446,10.225ZM502.858,791.821l19.459,-13.633l-4.578,-5.682l-14.881,10.226l-5.722,-5.681l-5.723,4.545l11.445,10.225ZM396.222,791.821l19.458,-13.633l-4.577,-5.682l-14.881,10.226l-5.723,-5.681l-5.723,4.545l11.446,10.225ZM76.313,789.479l19.458,-13.634l-4.577,-5.681l-14.881,10.225l-5.723,-5.681l-5.723,4.545l11.446,10.226ZM450.858,756.242l19.459,-13.633l-4.578,-5.682l-14.881,10.226l-5.722,-5.681l-5.723,4.545l11.445,10.225ZM1197.31,756.242l19.458,-13.633l-4.577,-5.682l-14.881,10.226l-5.723,-5.681l-5.723,4.545l11.446,10.225ZM984.04,756.242l19.458,-13.633l-4.577,-5.682l-14.881,10.226l-5.723,-5.681l-5.722,4.545l11.445,10.225ZM557.495,756.242l19.458,-13.633l-4.578,-5.682l-14.88,10.226l-5.723,-5.681l-5.723,4.545l11.446,10.225ZM877.404,756.242l19.458,-13.633l-4.577,-5.682l-14.881,10.226l-5.723,-5.681l-5.723,4.545l11.446,10.225ZM770.767,756.242l19.459,-13.633l-4.578,-5.682l-14.881,10.226l-5.722,-5.681l-5.723,4.545l11.445,10.225ZM1090.68,756.242l19.458,-13.633l-4.578,-5.682l-14.88,10.226l-5.723,-5.681l-5.723,4.545l11.446,10.225ZM664.131,756.242l19.458,-13.633l-4.577,-5.682l-14.881,10.226l-5.723,-5.681l-5.723,4.545l11.446,10.225ZM237.586,756.242l19.458,-13.633l-4.578,-5.682l-14.88,10.226l-5.723,-5.681l-5.723,4.545l11.446,10.225ZM344.222,756.242l19.458,-13.633l-4.577,-5.682l-14.881,10.226l-5.723,-5.681l-5.723,4.545l11.446,10.225ZM130.949,756.242l19.458,-13.633l-4.577,-5.682l-14.881,10.226l-5.723,-5.681l-5.722,4.545l11.445,10.225ZM24.313,753.9l19.458,-13.634l-4.577,-5.681l-14.881,10.225l-5.723,-5.68l-5.723,4.544l11.446,10.226ZM716.131,715.421l19.458,-13.633l-4.577,-5.682l-14.881,10.226l-5.723,-5.681l-5.723,4.545l11.446,10.225ZM929.404,715.421l19.458,-13.633l-4.577,-5.682l-14.881,10.226l-5.723,-5.681l-5.723,4.545l11.446,10.225ZM1142.68,715.421l19.458,-13.633l-4.578,-5.682l-14.88,10.226l-5.723,-5.681l-5.723,4.545l11.446,10.225ZM1249.31,715.421l19.458,-13.633l-4.577,-5.682l-14.881,10.226l-5.723,-5.681l-5.723,4.545l11.446,10.225ZM289.586,715.421l19.458,-13.633l-4.578,-5.682l-14.88,10.226l-5.723,-5.681l-5.723,4.545l11.446,10.225ZM502.858,715.421l19.459,-13.633l-4.578,-5.682l-14.881,10.226l-5.722,-5.681l-5.723,4.545l11.445,10.225ZM396.222,715.421l19.458,-13.633l-4.577,-5.682l-14.881,10.226l-5.723,-5.681l-5.723,4.545l11.446,10.225ZM609.495,715.421l19.458,-13.633l-4.578,-5.682l-14.88,10.226l-5.723,-5.681l-5.723,4.545l11.446,10.225ZM1036.04,715.421l19.458,-13.633l-4.577,-5.682l-14.881,10.226l-5.723,-5.681l-5.722,4.545l11.445,10.225ZM182.949,715.421l19.458,-13.633l-4.577,-5.682l-14.881,10.226l-5.723,-5.681l-5.722,4.545l11.445,10.225ZM822.767,715.421l19.459,-13.633l-4.578,-5.682l-14.881,10.226l-5.722,-5.681l-5.723,4.545l11.445,10.225ZM76.313,713.079l19.458,-13.634l-4.577,-5.681l-14.881,10.225l-5.723,-5.681l-5.723,4.545l11.446,10.226ZM984.04,679.842l19.458,-13.633l-4.577,-5.682l-14.881,10.226l-5.723,-5.681l-5.722,4.545l11.445,10.225ZM344.222,679.842l19.458,-13.633l-4.577,-5.682l-14.881,10.226l-5.723,-5.681l-5.723,4.545l11.446,10.225ZM664.131,679.842l19.458,-13.633l-4.577,-5.682l-14.881,10.226l-5.723,-5.681l-5.723,4.545l11.446,10.225ZM557.495,679.842l19.458,-13.633l-4.578,-5.682l-14.88,10.226l-5.723,-5.681l-5.723,4.545l11.446,10.225ZM1197.31,679.842l19.458,-13.633l-4.577,-5.682l-14.881,10.226l-5.723,-5.681l-5.723,4.545l11.446,10.225ZM770.767,679.842l19.459,-13.633l-4.578,-5.682l-14.881,10.226l-5.722,-5.681l-5.723,4.545l11.445,10.225ZM237.586,679.842l19.458,-13.633l-4.578,-5.682l-14.88,10.226l-5.723,-5.681l-5.723,4.545l11.446,10.225ZM450.858,679.842l19.459,-13.633l-4.578,-5.682l-14.881,10.226l-5.722,-5.681l-5.723,4.545l11.445,10.225ZM130.949,679.842l19.458,-13.633l-4.577,-5.682l-14.881,10.226l-5.723,-5.681l-5.722,4.545l11.445,10.225ZM1090.68,679.842l19.458,-13.633l-4.578,-5.682l-14.88,10.226l-5.723,-5.681l-5.723,4.545l11.446,10.225ZM877.404,679.842l19.458,-13.633l-4.577,-5.682l-14.881,10.226l-5.723,-5.681l-5.723,4.545l11.446,10.225ZM24.313,677.5l19.458,-13.634l-4.577,-5.681l-14.881,10.225l-5.723,-5.68l-5.723,4.544l11.446,10.226ZM929.404,639.021l19.458,-13.633l-4.577,-5.682l-14.881,10.226l-5.723,-5.681l-5.723,4.545l11.446,10.225ZM1249.31,639.021l19.458,-13.633l-4.577,-5.682l-14.881,10.226l-5.723,-5.681l-5.723,4.545l11.446,10.225ZM289.586,639.021l19.458,-13.633l-4.578,-5.682l-14.88,10.226l-5.723,-5.681l-5.723,4.545l11.446,10.225ZM502.858,639.021l19.459,-13.633l-4.578,-5.682l-14.881,10.226l-5.722,-5.681l-5.723,4.545l11.445,10.225ZM609.495,639.021l19.458,-13.633l-4.578,-5.682l-14.88,10.226l-5.723,-5.681l-5.723,4.545l11.446,10.225ZM1036.04,639.021l19.458,-13.633l-4.577,-5.682l-14.881,10.226l-5.723,-5.681l-5.722,4.545l11.445,10.225ZM396.222,639.021l19.458,-13.633l-4.577,-5.682l-14.881,10.226l-5.723,-5.681l-5.723,4.545l11.446,10.225ZM182.949,639.021l19.458,-13.633l-4.577,-5.682l-14.881,10.226l-5.723,-5.681l-5.722,4.545l11.445,10.225ZM822.767,639.021l19.459,-13.633l-4.578,-5.682l-14.881,10.226l-5.722,-5.681l-5.723,4.545l11.445,10.225ZM1142.68,639.021l19.458,-13.633l-4.578,-5.682l-14.88,10.226l-5.723,-5.681l-5.723,4.545l11.446,10.225ZM716.131,639.021l19.458,-13.633l-4.577,-5.682l-14.881,10.226l-5.723,-5.681l-5.723,4.545l11.446,10.225ZM76.313,636.679l19.458,-13.634l-4.577,-5.681l-14.881,10.225l-5.723,-5.681l-5.723,4.545l11.446,10.226ZM344.222,603.442l19.458,-13.633l-4.577,-5.682l-14.881,10.226l-5.723,-5.681l-5.723,4.545l11.446,10.225ZM557.495,603.442l19.458,-13.633l-4.578,-5.682l-14.88,10.226l-5.723,-5.681l-5.723,4.545l11.446,10.225ZM877.404,603.442l19.458,-13.633l-4.577,-5.682l-14.881,10.226l-5.723,-5.681l-5.723,4.545l11.446,10.225ZM1197.31,603.442l19.458,-13.633l-4.577,-5.682l-14.881,10.226l-5.723,-5.681l-5.723,4.545l11.446,10.225ZM984.04,603.442l19.458,-13.633l-4.577,-5.682l-14.881,10.226l-5.723,-5.681l-5.722,4.545l11.445,10.225ZM237.586,603.442l19.458,-13.633l-4.578,-5.682l-14.88,10.226l-5.723,-5.681l-5.723,4.545l11.446,10.225ZM770.767,603.442l19.459,-13.633l-4.578,-5.682l-14.881,10.226l-5.722,-5.681l-5.723,4.545l11.445,10.225ZM664.131,603.442l19.458,-13.633l-4.577,-5.682l-14.881,10.226l-5.723,-5.681l-5.723,4.545l11.446,10.225ZM130.949,603.442l19.458,-13.633l-4.577,-5.682l-14.881,10.226l-5.723,-5.681l-5.722,4.545l11.445,10.225ZM450.858,603.442l19.459,-13.633l-4.578,-5.682l-14.881,10.226l-5.722,-5.681l-5.723,4.545l11.445,10.225ZM1090.68,603.442l19.458,-13.633l-4.578,-5.682l-14.88,10.226l-5.723,-5.681l-5.723,4.545l11.446,10.225ZM24.313,601.1l19.458,-13.634l-4.577,-5.681l-14.881,10.225l-5.723,-5.68l-5.723,4.544l11.446,10.226ZM1036.04,562.621l19.458,-13.633l-4.577,-5.682l-14.881,10.226l-5.723,-5.681l-5.722,4.545l11.445,10.225ZM609.495,562.621l19.458,-13.633l-4.578,-5.682l-14.88,10.226l-5.723,-5.681l-5.723,4.545l11.446,10.225ZM1249.31,562.621l19.458,-13.633l-4.577,-5.682l-14.881,10.226l-5.723,-5.681l-5.723,4.545l11.446,10.225ZM929.404,562.621l19.458,-13.633l-4.577,-5.682l-14.881,10.226l-5.723,-5.681l-5.723,4.545l11.446,10.225ZM289.586,562.621l19.458,-13.633l-4.578,-5.682l-14.88,10.226l-5.723,-5.681l-5.723,4.545l11.446,10.225ZM502.858,562.621l19.459,-13.633l-4.578,-5.682l-14.881,10.226l-5.722,-5.681l-5.723,4.545l11.445,10.225ZM822.767,562.621l19.459,-13.633l-4.578,-5.682l-14.881,10.226l-5.722,-5.681l-5.723,4.545l11.445,10.225ZM182.949,562.621l19.458,-13.633l-4.577,-5.682l-14.881,10.226l-5.723,-5.681l-5.722,4.545l11.445,10.225ZM1142.68,562.621l19.458,-13.633l-4.578,-5.682l-14.88,10.226l-5.723,-5.681l-5.723,4.545l11.446,10.225ZM716.131,562.621l19.458,-13.633l-4.577,-5.682l-14.881,10.226l-5.723,-5.681l-5.723,4.545l11.446,10.225ZM396.222,562.621l19.458,-13.633l-4.577,-5.682l-14.881,10.226l-5.723,-5.681l-5.723,4.545l11.446,10.225ZM76.313,560.279l19.458,-13.634l-4.577,-5.681l-14.881,10.225l-5.723,-5.681l-5.723,4.545l11.446,10.226ZM984.04,527.042l19.458,-13.633l-4.577,-5.682l-14.881,10.226l-5.723,-5.681l-5.722,4.545l11.445,10.225ZM664.131,527.042l19.458,-13.633l-4.577,-5.682l-14.881,10.226l-5.723,-5.681l-5.723,4.545l11.446,10.225ZM237.586,527.042l19.458,-13.633l-4.578,-5.682l-14.88,10.226l-5.723,-5.681l-5.723,4.545l11.446,10.225ZM344.222,527.042l19.458,-13.633l-4.577,-5.682l-14.881,10.226l-5.723,-5.681l-5.723,4.545l11.446,10.225ZM450.858,527.042l19.459,-13.633l-4.578,-5.682l-14.881,10.226l-5.722,-5.681l-5.723,4.545l11.445,10.225ZM1197.31,527.042l19.458,-13.633l-4.577,-5.682l-14.881,10.226l-5.723,-5.681l-5.723,4.545l11.446,10.225ZM770.767,527.042l19.459,-13.633l-4.578,-5.682l-14.881,10.226l-5.722,-5.681l-5.723,4.545l11.445,10.225ZM877.404,527.042l19.458,-13.633l-4.577,-5.682l-14.881,10.226l-5.723,-5.681l-5.723,4.545l11.446,10.225ZM1090.68,527.042l19.458,-13.633l-4.578,-5.682l-14.88,10.226l-5.723,-5.681l-5.723,4.545l11.446,10.225ZM130.949,527.042l19.458,-13.633l-4.577,-5.682l-14.881,10.226l-5.723,-5.681l-5.722,4.545l11.445,10.225ZM557.495,527.042l19.458,-13.633l-4.578,-5.682l-14.88,10.226l-5.723,-5.681l-5.723,4.545l11.446,10.225ZM24.313,524.7l19.458,-13.634l-4.577,-5.681l-14.881,10.225l-5.723,-5.68l-5.723,4.544l11.446,10.226ZM502.858,486.221l19.459,-13.633l-4.578,-5.682l-14.881,10.226l-5.722,-5.681l-5.723,4.545l11.445,10.225ZM822.767,486.221l19.459,-13.633l-4.578,-5.682l-14.881,10.226l-5.722,-5.681l-5.723,4.545l11.445,10.225ZM929.404,486.221l19.458,-13.633l-4.577,-5.682l-14.881,10.226l-5.723,-5.681l-5.723,4.545l11.446,10.225ZM716.131,486.221l19.458,-13.633l-4.577,-5.682l-14.881,10.226l-5.723,-5.681l-5.723,4.545l11.446,10.225ZM1249.31,486.221l19.458,-13.633l-4.577,-5.682l-14.881,10.226l-5.723,-5.681l-5.723,4.545l11.446,10.225ZM1036.04,486.221l19.458,-13.633l-4.577,-5.682l-14.881,10.226l-5.723,-5.681l-5.722,4.545l11.445,10.225ZM289.586,486.221l19.458,-13.633l-4.578,-5.682l-14.88,10.226l-5.723,-5.681l-5.723,4.545l11.446,10.225ZM609.495,486.221l19.458,-13.633l-4.578,-5.682l-14.88,10.226l-5.723,-5.681l-5.723,4.545l11.446,10.225ZM1142.68,486.221l19.458,-13.633l-4.578,-5.682l-14.88,10.226l-5.723,-5.681l-5.723,4.545l11.446,10.225ZM182.949,486.221l19.458,-13.633l-4.577,-5.682l-14.881,10.226l-5.723,-5.681l-5.722,4.545l11.445,10.225ZM396.222,486.221l19.458,-13.633l-4.577,-5.682l-14.881,10.226l-5.723,-5.681l-5.723,4.545l11.446,10.225ZM76.313,483.879l19.458,-13.634l-4.577,-5.681l-14.881,10.225l-5.723,-5.681l-5.723,4.545l11.446,10.226ZM130.949,450.642l19.458,-13.633l-4.577,-5.682l-14.881,10.226l-5.723,-5.681l-5.722,4.545l11.445,10.225ZM1197.31,450.642l19.458,-13.633l-4.577,-5.682l-14.881,10.226l-5.723,-5.681l-5.723,4.545l11.446,10.225ZM344.222,450.642l19.458,-13.633l-4.577,-5.682l-14.881,10.226l-5.723,-5.681l-5.723,4.545l11.446,10.225ZM557.495,450.642l19.458,-13.633l-4.578,-5.682l-14.88,10.226l-5.723,-5.681l-5.723,4.545l11.446,10.225ZM664.131,450.642l19.458,-13.633l-4.577,-5.682l-14.881,10.226l-5.723,-5.681l-5.723,4.545l11.446,10.225ZM237.586,450.642l19.458,-13.633l-4.578,-5.682l-14.88,10.226l-5.723,-5.681l-5.723,4.545l11.446,10.225ZM770.767,450.642l19.459,-13.633l-4.578,-5.682l-14.881,10.226l-5.722,-5.681l-5.723,4.545l11.445,10.225ZM450.858,450.642l19.459,-13.633l-4.578,-5.682l-14.881,10.226l-5.722,-5.681l-5.723,4.545l11.445,10.225ZM1090.68,450.642l19.458,-13.633l-4.578,-5.682l-14.88,10.226l-5.723,-5.681l-5.723,4.545l11.446,10.225ZM877.404,450.642l19.458,-13.633l-4.577,-5.682l-14.881,10.226l-5.723,-5.681l-5.723,4.545l11.446,10.225ZM984.04,450.642l19.458,-13.633l-4.577,-5.682l-14.881,10.226l-5.723,-5.681l-5.722,4.545l11.445,10.225ZM24.313,448.3l19.458,-13.634l-4.577,-5.681l-14.881,10.225l-5.723,-5.68l-5.723,4.544l11.446,10.226ZM502.858,409.821l19.459,-13.633l-4.578,-5.682l-14.881,10.226l-5.722,-5.681l-5.723,4.545l11.445,10.225ZM1249.31,409.821l19.458,-13.633l-4.577,-5.682l-14.881,10.226l-5.723,-5.681l-5.723,4.545l11.446,10.225ZM1036.04,409.821l19.458,-13.633l-4.577,-5.682l-14.881,10.226l-5.723,-5.681l-5.722,4.545l11.445,10.225ZM929.404,409.821l19.458,-13.633l-4.577,-5.682l-14.881,10.226l-5.723,-5.681l-5.723,4.545l11.446,10.225ZM822.767,409.821l19.459,-13.633l-4.578,-5.682l-14.881,10.226l-5.722,-5.681l-5.723,4.545l11.445,10.225ZM289.586,409.821l19.458,-13.633l-4.578,-5.682l-14.88,10.226l-5.723,-5.681l-5.723,4.545l11.446,10.225ZM716.131,409.821l19.458,-13.633l-4.577,-5.682l-14.881,10.226l-5.723,-5.681l-5.723,4.545l11.446,10.225ZM182.949,409.821l19.458,-13.633l-4.577,-5.682l-14.881,10.226l-5.723,-5.681l-5.722,4.545l11.445,10.225ZM1142.68,409.821l19.458,-13.633l-4.578,-5.682l-14.88,10.226l-5.723,-5.681l-5.723,4.545l11.446,10.225ZM609.495,409.821l19.458,-13.633l-4.578,-5.682l-14.88,10.226l-5.723,-5.681l-5.723,4.545l11.446,10.225ZM396.222,409.821l19.458,-13.633l-4.577,-5.682l-14.881,10.226l-5.723,-5.681l-5.723,4.545l11.446,10.225ZM76.313,407.479l19.458,-13.634l-4.577,-5.681l-14.881,10.225l-5.723,-5.681l-5.723,4.545l11.446,10.226ZM130.949,374.242l19.458,-13.633l-4.577,-5.682l-14.881,10.226l-5.723,-5.681l-5.722,4.545l11.445,10.225ZM450.858,374.242l19.459,-13.633l-4.578,-5.682l-14.881,10.226l-5.722,-5.681l-5.723,4.545l11.445,10.225ZM877.404,374.242l19.458,-13.633l-4.577,-5.682l-14.881,10.226l-5.723,-5.681l-5.723,4.545l11.446,10.225ZM770.767,374.242l19.459,-13.633l-4.578,-5.682l-14.881,10.226l-5.722,-5.681l-5.723,4.545l11.445,10.225ZM557.495,374.242l19.458,-13.633l-4.578,-5.682l-14.88,10.226l-5.723,-5.681l-5.723,4.545l11.446,10.225ZM237.586,374.242l19.458,-13.633l-4.578,-5.682l-14.88,10.226l-5.723,-5.681l-5.723,4.545l11.446,10.225ZM664.131,374.242l19.458,-13.633l-4.577,-5.682l-14.881,10.226l-5.723,-5.681l-5.723,4.545l11.446,10.225ZM1197.31,374.242l19.458,-13.633l-4.577,-5.682l-14.881,10.226l-5.723,-5.681l-5.723,4.545l11.446,10.225ZM984.04,374.242l19.458,-13.633l-4.577,-5.682l-14.881,10.226l-5.723,-5.681l-5.722,4.545l11.445,10.225ZM344.222,374.242l19.458,-13.633l-4.577,-5.682l-14.881,10.226l-5.723,-5.681l-5.723,4.545l11.446,10.225ZM1090.68,374.242l19.458,-13.633l-4.578,-5.682l-14.88,10.226l-5.723,-5.681l-5.723,4.545l11.446,10.225ZM24.313,371.9l19.458,-13.634l-4.577,-5.681l-14.881,10.225l-5.723,-5.68l-5.723,4.544l11.446,10.226ZM1249.31,333.421l19.458,-13.633l-4.577,-5.682l-14.881,10.226l-5.723,-5.681l-5.723,4.545l11.446,10.225ZM716.131,333.421l19.458,-13.633l-4.577,-5.682l-14.881,10.226l-5.723,-5.681l-5.723,4.545l11.446,10.225ZM396.222,333.421l19.458,-13.633l-4.577,-5.682l-14.881,10.226l-5.723,-5.681l-5.723,4.545l11.446,10.225ZM1142.68,333.421l19.458,-13.633l-4.578,-5.682l-14.88,10.226l-5.723,-5.681l-5.723,4.545l11.446,10.225ZM822.767,333.421l19.459,-13.633l-4.578,-5.682l-14.881,10.226l-5.722,-5.681l-5.723,4.545l11.445,10.225ZM289.586,333.421l19.458,-13.633l-4.578,-5.682l-14.88,10.226l-5.723,-5.681l-5.723,4.545l11.446,10.225ZM609.495,333.421l19.458,-13.633l-4.578,-5.682l-14.88,10.226l-5.723,-5.681l-5.723,4.545l11.446,10.225ZM182.949,333.421l19.458,-13.633l-4.577,-5.682l-14.881,10.226l-5.723,-5.681l-5.722,4.545l11.445,10.225ZM929.404,333.421l19.458,-13.633l-4.577,-5.682l-14.881,10.226l-5.723,-5.681l-5.723,4.545l11.446,10.225ZM502.858,333.421l19.459,-13.633l-4.578,-5.682l-14.881,10.226l-5.722,-5.681l-5.723,4.545l11.445,10.225ZM1036.04,333.421l19.458,-13.633l-4.577,-5.682l-14.881,10.226l-5.723,-5.681l-5.722,4.545l11.445,10.225ZM76.313,331.079l19.458,-13.634l-4.577,-5.681l-14.881,10.225l-5.723,-5.681l-5.723,4.545l11.446,10.226ZM664.131,297.842l19.458,-13.633l-4.577,-5.682l-14.881,10.226l-5.723,-5.681l-5.723,4.545l11.446,10.225ZM450.858,297.842l19.459,-13.633l-4.578,-5.682l-14.881,10.226l-5.722,-5.681l-5.723,4.545l11.445,10.225ZM984.04,297.842l19.458,-13.633l-4.577,-5.682l-14.881,10.226l-5.723,-5.681l-5.722,4.545l11.445,10.225ZM770.767,297.842l19.459,-13.633l-4.578,-5.682l-14.881,10.226l-5.722,-5.681l-5.723,4.545l11.445,10.225ZM1090.68,297.842l19.458,-13.633l-4.578,-5.682l-14.88,10.226l-5.723,-5.681l-5.723,4.545l11.446,10.225ZM130.949,297.842l19.458,-13.633l-4.577,-5.682l-14.881,10.226l-5.723,-5.681l-5.722,4.545l11.445,10.225ZM344.222,297.842l19.458,-13.633l-4.577,-5.682l-14.881,10.226l-5.723,-5.681l-5.723,4.545l11.446,10.225ZM877.404,297.842l19.458,-13.633l-4.577,-5.682l-14.881,10.226l-5.723,-5.681l-5.723,4.545l11.446,10.225ZM1197.31,297.842l19.458,-13.633l-4.577,-5.682l-14.881,10.226l-5.723,-5.681l-5.723,4.545l11.446,10.225ZM557.495,297.842l19.458,-13.633l-4.578,-5.682l-14.88,10.226l-5.723,-5.681l-5.723,4.545l11.446,10.225ZM237.586,297.842l19.458,-13.633l-4.578,-5.682l-14.88,10.226l-5.723,-5.681l-5.723,4.545l11.446,10.225ZM24.313,295.5l19.458,-13.634l-4.577,-5.681l-14.881,10.225l-5.723,-5.68l-5.723,4.544l11.446,10.226ZM1249.31,257.021l19.458,-13.633l-4.577,-5.682l-14.881,10.226l-5.723,-5.681l-5.723,4.545l11.446,10.225ZM289.586,257.021l19.458,-13.633l-4.578,-5.682l-14.88,10.226l-5.723,-5.681l-5.723,4.545l11.446,10.225ZM1142.68,257.021l19.458,-13.633l-4.578,-5.682l-14.88,10.226l-5.723,-5.681l-5.723,4.545l11.446,10.225ZM396.222,257.021l19.458,-13.633l-4.577,-5.682l-14.881,10.226l-5.723,-5.681l-5.723,4.545l11.446,10.225ZM1036.04,257.021l19.458,-13.633l-4.577,-5.682l-14.881,10.226l-5.723,-5.681l-5.722,4.545l11.445,10.225ZM822.767,257.021l19.459,-13.633l-4.578,-5.682l-14.881,10.226l-5.722,-5.681l-5.723,4.545l11.445,10.225ZM502.858,257.021l19.459,-13.633l-4.578,-5.682l-14.881,10.226l-5.722,-5.681l-5.723,4.545l11.445,10.225ZM182.949,257.021l19.458,-13.633l-4.577,-5.682l-14.881,10.226l-5.723,-5.681l-5.722,4.545l11.445,10.225ZM609.495,257.021l19.458,-13.633l-4.578,-5.682l-14.88,10.226l-5.723,-5.681l-5.723,4.545l11.446,10.225ZM929.404,257.021l19.458,-13.633l-4.577,-5.682l-14.881,10.226l-5.723,-5.681l-5.723,4.545l11.446,10.225ZM716.131,257.021l19.458,-13.633l-4.577,-5.682l-14.881,10.226l-5.723,-5.681l-5.723,4.545l11.446,10.225ZM76.313,254.679l19.458,-13.634l-4.577,-5.681l-14.881,10.225l-5.723,-5.681l-5.723,4.545l11.446,10.226ZM237.586,221.442l19.458,-13.633l-4.578,-5.682l-14.88,10.226l-5.723,-5.681l-5.723,4.545l11.446,10.225ZM877.404,221.442l19.458,-13.633l-4.577,-5.682l-14.881,10.226l-5.723,-5.681l-5.723,4.545l11.446,10.225ZM1090.68,221.442l19.458,-13.633l-4.578,-5.682l-14.88,10.226l-5.723,-5.681l-5.723,4.545l11.446,10.225ZM450.858,221.442l19.459,-13.633l-4.578,-5.682l-14.881,10.226l-5.722,-5.681l-5.723,4.545l11.445,10.225ZM664.131,221.442l19.458,-13.633l-4.577,-5.682l-14.881,10.226l-5.723,-5.681l-5.723,4.545l11.446,10.225ZM557.495,221.442l19.458,-13.633l-4.578,-5.682l-14.88,10.226l-5.723,-5.681l-5.723,4.545l11.446,10.225ZM344.222,221.442l19.458,-13.633l-4.577,-5.682l-14.881,10.226l-5.723,-5.681l-5.723,4.545l11.446,10.225ZM770.767,221.442l19.459,-13.633l-4.578,-5.682l-14.881,10.226l-5.722,-5.681l-5.723,4.545l11.445,10.225ZM1197.31,221.442l19.458,-13.633l-4.577,-5.682l-14.881,10.226l-5.723,-5.681l-5.723,4.545l11.446,10.225ZM130.949,221.442l19.458,-13.633l-4.577,-5.682l-14.881,10.226l-5.723,-5.681l-5.722,4.545l11.445,10.225ZM984.04,221.442l19.458,-13.633l-4.577,-5.682l-14.881,10.226l-5.723,-5.681l-5.722,4.545l11.445,10.225ZM24.313,219.1l19.458,-13.634l-4.577,-5.681l-14.881,10.225l-5.723,-5.68l-5.723,4.544l11.446,10.226ZM502.858,180.621l19.459,-13.633l-4.578,-5.682l-14.881,10.226l-5.722,-5.681l-5.723,4.545l11.445,10.225ZM716.131,180.621l19.458,-13.633l-4.577,-5.682l-14.881,10.226l-5.723,-5.681l-5.723,4.545l11.446,10.225ZM396.222,180.621l19.458,-13.633l-4.577,-5.682l-14.881,10.226l-5.723,-5.681l-5.723,4.545l11.446,10.225ZM1249.31,180.621l19.458,-13.633l-4.577,-5.682l-14.881,10.226l-5.723,-5.681l-5.723,4.545l11.446,10.225ZM1036.04,180.621l19.458,-13.633l-4.577,-5.682l-14.881,10.226l-5.723,-5.681l-5.722,4.545l11.445,10.225ZM609.495,180.621l19.458,-13.633l-4.578,-5.682l-14.88,10.226l-5.723,-5.681l-5.723,4.545l11.446,10.225ZM289.586,180.621l19.458,-13.633l-4.578,-5.682l-14.88,10.226l-5.723,-5.681l-5.723,4.545l11.446,10.225ZM929.404,180.621l19.458,-13.633l-4.577,-5.682l-14.881,10.226l-5.723,-5.681l-5.723,4.545l11.446,10.225ZM1142.68,180.621l19.458,-13.633l-4.578,-5.682l-14.88,10.226l-5.723,-5.681l-5.723,4.545l11.446,10.225ZM822.767,180.621l19.459,-13.633l-4.578,-5.682l-14.881,10.226l-5.722,-5.681l-5.723,4.545l11.445,10.225ZM182.949,180.621l19.458,-13.633l-4.577,-5.682l-14.881,10.226l-5.723,-5.681l-5.722,4.545l11.445,10.225ZM76.313,178.279l19.458,-13.634l-4.577,-5.681l-14.881,10.225l-5.723,-5.681l-5.723,4.545l11.446,10.226ZM1090.68,145.042l19.458,-13.633l-4.578,-5.682l-14.88,10.226l-5.723,-5.681l-5.723,4.545l11.446,10.225ZM770.767,145.042l19.459,-13.633l-4.578,-5.682l-14.881,10.226l-5.722,-5.681l-5.723,4.545l11.445,10.225ZM664.131,145.042l19.458,-13.633l-4.577,-5.682l-14.881,10.226l-5.723,-5.681l-5.723,4.545l11.446,10.225ZM344.222,145.042l19.458,-13.633l-4.577,-5.682l-14.881,10.226l-5.723,-5.681l-5.723,4.545l11.446,10.225ZM1197.31,145.042l19.458,-13.633l-4.577,-5.682l-14.881,10.226l-5.723,-5.681l-5.723,4.545l11.446,10.225ZM984.04,145.042l19.458,-13.633l-4.577,-5.682l-14.881,10.226l-5.723,-5.681l-5.722,4.545l11.445,10.225ZM877.404,145.042l19.458,-13.633l-4.577,-5.682l-14.881,10.226l-5.723,-5.681l-5.723,4.545l11.446,10.225ZM557.495,145.042l19.458,-13.633l-4.578,-5.682l-14.88,10.226l-5.723,-5.681l-5.723,4.545l11.446,10.225ZM237.586,145.042l19.458,-13.633l-4.578,-5.682l-14.88,10.226l-5.723,-5.681l-5.723,4.545l11.446,10.225ZM130.949,145.042l19.458,-13.633l-4.577,-5.682l-14.881,10.226l-5.723,-5.681l-5.722,4.545l11.445,10.225ZM450.858,145.042l19.459,-13.633l-4.578,-5.682l-14.881,10.226l-5.722,-5.681l-5.723,4.545l11.445,10.225ZM24.313,142.7l19.458,-13.634l-4.577,-5.681l-14.881,10.225l-5.723,-5.68l-5.723,4.544l11.446,10.226ZM1142.68,104.221l19.458,-13.633l-4.578,-5.682l-14.88,10.226l-5.723,-5.681l-5.723,4.545l11.446,10.225ZM1249.31,104.221l19.458,-13.633l-4.577,-5.682l-14.881,10.226l-5.723,-5.681l-5.723,4.545l11.446,10.225ZM182.949,104.221l19.458,-13.633l-4.577,-5.682l-14.881,10.226l-5.723,-5.681l-5.722,4.545l11.445,10.225ZM929.404,104.221l19.458,-13.633l-4.577,-5.682l-14.881,10.226l-5.723,-5.681l-5.723,4.545l11.446,10.225ZM822.767,104.221l19.459,-13.633l-4.578,-5.682l-14.881,10.226l-5.722,-5.681l-5.723,4.545l11.445,10.225ZM1036.04,104.221l19.458,-13.633l-4.577,-5.682l-14.881,10.226l-5.723,-5.681l-5.722,4.545l11.445,10.225ZM502.858,104.221l19.459,-13.633l-4.578,-5.682l-14.881,10.226l-5.722,-5.681l-5.723,4.545l11.445,10.225ZM289.586,104.221l19.458,-13.633l-4.578,-5.682l-14.88,10.226l-5.723,-5.681l-5.723,4.545l11.446,10.225ZM609.495,104.221l19.458,-13.633l-4.578,-5.682l-14.88,10.226l-5.723,-5.681l-5.723,4.545l11.446,10.225ZM716.131,104.221l19.458,-13.633l-4.577,-5.682l-14.881,10.226l-5.723,-5.681l-5.723,4.545l11.446,10.225ZM396.222,104.221l19.458,-13.633l-4.577,-5.682l-14.881,10.226l-5.723,-5.681l-5.723,4.545l11.446,10.225ZM76.313,101.879l19.458,-13.634l-4.577,-5.681l-14.881,10.225l-5.723,-5.681l-5.723,4.545l11.446,10.226ZM237.586,68.642l19.458,-13.633l-4.578,-5.682l-14.88,10.226l-5.723,-5.681l-5.723,4.545l11.446,10.225ZM664.131,68.642l19.458,-13.633l-4.577,-5.682l-14.881,10.226l-5.723,-5.681l-5.723,4.545l11.446,10.225ZM450.858,68.642l19.459,-13.633l-4.578,-5.682l-14.881,10.226l-5.722,-5.681l-5.723,4.545l11.445,10.225ZM1197.31,68.642l19.458,-13.633l-4.577,-5.682l-14.881,10.226l-5.723,-5.681l-5.723,4.545l11.446,10.225ZM557.495,68.642l19.458,-13.633l-4.578,-5.682l-14.88,10.226l-5.723,-5.681l-5.723,4.545l11.446,10.225ZM344.222,68.642l19.458,-13.633l-4.577,-5.682l-14.881,10.226l-5.723,-5.681l-5.723,4.545l11.446,10.225ZM130.949,68.642l19.458,-13.633l-4.577,-5.682l-14.881,10.226l-5.723,-5.681l-5.722,4.545l11.445,10.225ZM1090.68,68.642l19.458,-13.633l-4.578,-5.682l-14.88,10.226l-5.723,-5.681l-5.723,4.545l11.446,10.225ZM984.04,68.642l19.458,-13.633l-4.577,-5.682l-14.881,10.226l-5.723,-5.681l-5.722,4.545l11.445,10.225ZM770.767,68.642l19.459,-13.633l-4.578,-5.682l-14.881,10.226l-5.722,-5.681l-5.723,4.545l11.445,10.225ZM877.404,68.642l19.458,-13.633l-4.577,-5.682l-14.881,10.226l-5.723,-5.681l-5.723,4.545l11.446,10.225ZM24.313,66.3l19.458,-13.634l-4.577,-5.681l-14.881,10.225l-5.723,-5.68l-5.723,4.544l11.446,10.226ZM1249.31,27.821l19.458,-13.633l-4.577,-5.682l-14.881,10.226l-5.723,-5.681l-5.723,4.545l11.446,10.225ZM182.949,27.821l19.458,-13.633l-4.577,-5.682l-14.881,10.226l-5.723,-5.681l-5.722,4.545l11.445,10.225ZM502.858,27.821l19.459,-13.633l-4.578,-5.682l-14.881,10.226l-5.722,-5.681l-5.723,4.545l11.445,10.225ZM289.586,27.821l19.458,-13.633l-4.578,-5.682l-14.88,10.226l-5.723,-5.681l-5.723,4.545l11.446,10.225ZM1036.04,27.821l19.458,-13.633l-4.577,-5.682l-14.881,10.226l-5.723,-5.681l-5.722,4.545l11.445,10.225ZM716.131,27.821l19.458,-13.633l-4.577,-5.682l-14.881,10.226l-5.723,-5.681l-5.723,4.545l11.446,10.225ZM929.404,27.821l19.458,-13.633l-4.577,-5.682l-14.881,10.226l-5.723,-5.681l-5.723,4.545l11.446,10.225ZM822.767,27.821l19.459,-13.633l-4.578,-5.682l-14.881,10.226l-5.722,-5.681l-5.723,4.545l11.445,10.225ZM1142.68,27.821l19.458,-13.633l-4.578,-5.682l-14.88,10.226l-5.723,-5.681l-5.723,4.545l11.446,10.225ZM609.495,27.821l19.458,-13.633l-4.578,-5.682l-14.88,10.226l-5.723,-5.681l-5.723,4.545l11.446,10.225ZM396.222,27.821l19.458,-13.633l-4.577,-5.682l-14.881,10.226l-5.723,-5.681l-5.723,4.545l11.446,10.225ZM76.313,25.479l19.458,-13.634l-4.577,-5.681l-14.881,10.225l-5.723,-5.681l-5.723,4.545l11.446,10.226Z" style="fill:#18af1c;fill-opacity:0.14902;"/><clipPath id="_clip1"><path d="M1142.68,791.821l19.458,-13.633l-4.578,-5.682l-14.88,10.226l-5.723,-5.681l-5.723,4.545l11.446,10.225ZM1036.04,791.821l19.458,-13.633l-4.577,-5.682l-14.881,10.226l-5.723,-5.681l-5.722,4.545l11.445,10.225ZM289.586,791.821l19.458,-13.633l-4.578,-5.682l-14.88,10.226l-5.723,-5.681l-5.723,4.545l11.446,10.225ZM1249.31,791.821l19.458,-13.633l-4.577,-5.682l-14.881,10.226l-5.723,-5.681l-5.723,4.545l11.446,10.225ZM716.131,791.821l19.458,-13.633l-4.577,-5.682l-14.881,10.226l-5.723,-5.681l-5.723,4.545l11.446,10.225ZM822.767,791.821l19.459,-13.633l-4.578,-5.682l-14.881,10.226l-5.722,-5.681l-5.723,4.545l11.445,10.225ZM182.949,791.821l19.458,-13.633l-4.577,-5.682l-14.881,10.226l-5.723,-5.681l-5.722,4.545l11.445,10.225ZM609.495,791.821l19.458,-13.633l-4.578,-5.682l-14.88,10.226l-5.723,-5.681l-5.723,4.545l11.446,10.225ZM929.404,791.821l19.458,-13.633l-4.577,-5.682l-14.881,10.226l-5.723,-5.681l-5.723,4.545l11.446,10.225ZM502.858,791.821l19.459,-13.633l-4.578,-5.682l-14.881,10.226l-5.722,-5.681l-5.723,4.545l11.445,10.225ZM396.222,791.821l19.458,-13.633l-4.577,-5.682l-14.881,10.226l-5.723,-5.681l-5.723,4.545l11.446,10.225ZM76.313,789.479l19.458,-13.634l-4.577,-5.681l-14.881,10.225l-5.723,-5.681l-5.723,4.545l11.446,10.226ZM450.858,756.242l19.459,-13.633l-4.578,-5.682l-14.881,10.226l-5.722,-5.681l-5.723,4.545l11.445,10.225ZM1197.31,756.242l19.458,-13.633l-4.577,-5.682l-14.881,10.226l-5.723,-5.681l-5.723,4.545l11.446,10.225ZM984.04,756.242l19.458,-13.633l-4.577,-5.682l-14.881,10.226l-5.723,-5.681l-5.722,4.545l11.445,10.225ZM557.495,756.242l19.458,-13.633l-4.578,-5.682l-14.88,10.226l-5.723,-5.681l-5.723,4.545l11.446,10.225ZM877.404,756.242l19.458,-13.633l-4.577,-5.682l-14.881,10.226l-5.723,-5.681l-5.723,4.545l11.446,10.225ZM770.767,756.242l19.459,-13.633l-4.578,-5.682l-14.881,10.226l-5.722,-5.681l-5.723,4.545l11.445,10.225ZM1090.68,756.242l19.458,-13.633l-4.578,-5.682l-14.88,10.226l-5.723,-5.681l-5.723,4.545l11.446,10.225ZM664.131,756.242l19.458,-13.633l-4.577,-5.682l-14.881,10.226l-5.723,-5.681l-5.723,4.545l11.446,10.225ZM237.586,756.242l19.458,-13.633l-4.578,-5.682l-14.88,10.226l-5.723,-5.681l-5.723,4.545l11.446,10.225ZM344.222,756.242l19.458,-13.633l-4.577,-5.682l-14.881,10.226l-5.723,-5.681l-5.723,4.545l11.446,10.225ZM130.949,756.242l19.458,-13.633l-4.577,-5.682l-14.881,10.226l-5.723,-5.681l-5.722,4.545l11.445,10.225ZM24.313,753.9l19.458,-13.634l-4.577,-5.681l-14.881,10.225l-5.723,-5.68l-5.723,4.544l11.446,10.226ZM716.131,715.421l19.458,-13.633l-4.577,-5.682l-14.881,10.226l-5.723,-5.681l-5.723,4.545l11.446,10.225ZM929.404,715.421l19.458,-13.633l-4.577,-5.682l-14.881,10.226l-5.723,-5.681l-5.723,4.545l11.446,10.225ZM1142.68,715.421l19.458,-13.633l-4.578,-5.682l-14.88,10.226l-5.723,-5.681l-5.723,4.545l11.446,10.225ZM1249.31,715.421l19.458,-13.633l-4.577,-5.682l-14.881,10.226l-5.723,-5.681l-5.723,4.545l11.446,10.225ZM289.586,715.421l19.458,-13.633l-4.578,-5.682l-14.88,10.226l-5.723,-5.681l-5.723,4.545l11.446,10.225ZM502.858,715.421l19.459,-13.633l-4.578,-5.682l-14.881,10.226l-5.722,-5.681l-5.723,4.545l11.445,10.225ZM396.222,715.421l19.458,-13.633l-4.577,-5.682l-14.881,10.226l-5.723,-5.681l-5.723,4.545l11.446,10.225ZM609.495,715.421l19.458,-13.633l-4.578,-5.682l-14.88,10.226l-5.723,-5.681l-5.723,4.545l11.446,10.225ZM1036.04,715.421l19.458,-13.633l-4.577,-5.682l-14.881,10.226l-5.723,-5.681l-5.722,4.545l11.445,10.225ZM182.949,715.421l19.458,-13.633l-4.577,-5.682l-14.881,10.226l-5.723,-5.681l-5.722,4.545l11.445,10.225ZM822.767,715.421l19.459,-13.633l-4.578,-5.682l-14.881,10.226l-5.722,-5.681l-5.723,4.545l11.445,10.225ZM76.313,713.079l19.458,-13.634l-4.577,-5.681l-14.881,10.225l-5.723,-5.681l-5.723,4.545l11.446,10.226ZM984.04,679.842l19.458,-13.633l-4.577,-5.682l-14.881,10.226l-5.723,-5.681l-5.722,4.545l11.445,10.225ZM344.222,679.842l19.458,-13.633l-4.577,-5.682l-14.881,10.226l-5.723,-5.681l-5.723,4.545l11.446,10.225ZM664.131,679.842l19.458,-13.633l-4.577,-5.682l-14.881,10.226l-5.723,-5.681l-5.723,4.545l11.446,10.225ZM557.495,679.842l19.458,-13.633l-4.578,-5.682l-14.88,10.226l-5.723,-5.681l-5.723,4.545l11.446,10.225ZM1197.31,679.842l19.458,-13.633l-4.577,-5.682l-14.881,10.226l-5.723,-5.681l-5.723,4.545l11.446,10.225ZM770.767,679.842l19.459,-13.633l-4.578,-5.682l-14.881,10.226l-5.722,-5.681l-5.723,4.545l11.445,10.225ZM237.586,679.842l19.458,-13.633l-4.578,-5.682l-14.88,10.226l-5.723,-5.681l-5.723,4.545l11.446,10.225ZM450.858,679.842l19.459,-13.633l-4.578,-5.682l-14.881,10.226l-5.722,-5.681l-5.723,4.545l11.445,10.225ZM130.949,679.842l19.458,-13.633l-4.577,-5.682l-14.881,10.226l-5.723,-5.681l-5.722,4.545l11.445,10.225ZM1090.68,679.842l19.458,-13.633l-4.578,-5.682l-14.88,10.226l-5.723,-5.681l-5.723,4.545l11.446,10.225ZM877.404,679.842l19.458,-13.633l-4.577,-5.682l-14.881,10.226l-5.723,-5.681l-5.723,4.545l11.446,10.225ZM24.313,677.5l19.458,-13.634l-4.577,-5.681l-14.881,10.225l-5.723,-5.68l-5.723,4.544l11.446,10.226ZM929.404,639.021l19.458,-13.633l-4.577,-5.682l-14.881,10.226l-5.723,-5.681l-5.723,4.545l11.446,10.225ZM1249.31,639.021l19.458,-13.633l-4.577,-5.682l-14.881,10.226l-5.723,-5.681l-5.723,4.545l11.446,10.225ZM289.586,639.021l19.458,-13.633l-4.578,-5.682l-14.88,10.226l-5.723,-5.681l-5.723,4.545l11.446,10.225ZM502.858,639.021l19.459,-13.633l-4.578,-5.682l-14.881,10.226l-5.722,-5.681l-5.723,4.545l11.445,10.225ZM609.495,639.021l19.458,-13.633l-4.578,-5.682l-14.88,10.226l-5.723,-5.681l-5.723,4.545l11.446,10.225ZM1036.04,639.021l19.458,-13.633l-4.577,-5.682l-14.881,10.226l-5.723,-5.681l-5.722,4.545l11.445,10.225ZM396.222,639.021l19.458,-13.633l-4.577,-5.682l-14.881,10.226l-5.723,-5.681l-5.723,4.545l11.446,10.225ZM182.949,639.021l19.458,-13.633l-4.577,-5.682l-14.881,10.226l-5.723,-5.681l-5.722,4.545l11.445,10.225ZM822.767,639.021l19.459,-13.633l-4.578,-5.682l-14.881,10.226l-5.722,-5.681l-5.723,4.545l11.445,10.225ZM1142.68,639.021l19.458,-13.633l-4.578,-5.682l-14.88,10.226l-5.723,-5.681l-5.723,4.545l11.446,10.225ZM716.131,639.021l19.458,-13.633l-4.577,-5.682l-14.881,10.226l-5.723,-5.681l-5.723,4.545l11.446,10.225ZM76.313,636.679l19.458,-13.634l-4.577,-5.681l-14.881,10.225l-5.723,-5.681l-5.723,4.545l11.446,10.226ZM344.222,603.442l19.458,-13.633l-4.577,-5.682l-14.881,10.226l-5.723,-5.681l-5.723,4.545l11.446,10.225ZM557.495,603.442l19.458,-13.633l-4.578,-5.682l-14.88,10.226l-5.723,-5.681l-5.723,4.545l11.446,10.225ZM877.404,603.442l19.458,-13.633l-4.577,-5.682l-14.881,10.226l-5.723,-5.681l-5.723,4.545l11.446,10.225ZM1197.31,603.442l19.458,-13.633l-4.577,-5.682l-14.881,10.226l-5.723,-5.681l-5.723,4.545l11.446,10.225ZM984.04,603.442l19.458,-13.633l-4.577,-5.682l-14.881,10.226l-5.723,-5.681l-5.722,4.545l11.445,10.225ZM237.586,603.442l19.458,-13.633l-4.578,-5.682l-14.88,10.226l-5.723,-5.681l-5.723,4.545l11.446,10.225ZM770.767,603.442l19.459,-13.633l-4.578,-5.682l-14.881,10.226l-5.722,-5.681l-5.723,4.545l11.445,10.225ZM664.131,603.442l19.458,-13.633l-4.577,-5.682l-14.881,10.226l-5.723,-5.681l-5.723,4.545l11.446,10.225ZM130.949,603.442l19.458,-13.633l-4.577,-5.682l-14.881,10.226l-5.723,-5.681l-5.722,4.545l11.445,10.225ZM450.858,603.442l19.459,-13.633l-4.578,-5.682l-14.881,10.226l-5.722,-5.681l-5.723,4.545l11.445,10.225ZM1090.68,603.442l19.458,-13.633l-4.578,-5.682l-14.88,10.226l-5.723,-5.681l-5.723,4.545l11.446,10.225ZM24.313,601.1l19.458,-13.634l-4.577,-5.681l-14.881,10.225l-5.723,-5.68l-5.723,4.544l11.446,10.226ZM1036.04,562.621l19.458,-13.633l-4.577,-5.682l-14.881,10.226l-5.723,-5.681l-5.722,4.545l11.445,10.225ZM609.495,562.621l19.458,-13.633l-4.578,-5.682l-14.88,10.226l-5.723,-5.681l-5.723,4.545l11.446,10.225ZM1249.31,562.621l19.458,-13.633l-4.577,-5.682l-14.881,10.226l-5.723,-5.681l-5.723,4.545l11.446,10.225ZM929.404,562.621l19.458,-13.633l-4.577,-5.682l-14.881,10.226l-5.723,-5.681l-5.723,4.545l11.446,10.225ZM289.586,562.621l19.458,-13.633l-4.578,-5.682l-14.88,10.226l-5.723,-5.681l-5.723,4.545l11.446,10.225ZM502.858,562.621l19.459,-13.633l-4.578,-5.682l-14.881,10.226l-5.722,-5.681l-5.723,4.545l11.445,10.225ZM822.767,562.621l19.459,-13.633l-4.578,-5.682l-14.881,10.226l-5.722,-5.681l-5.723,4.545l11.445,10.225ZM182.949,562.621l19.458,-13.633l-4.577,-5.682l-14.881,10.226l-5.723,-5.681l-5.722,4.545l11.445,10.225ZM1142.68,562.621l19.458,-13.633l-4.578,-5.682l-14.88,10.226l-5.723,-5.681l-5.723,4.545l11.446,10.225ZM716.131,562.621l19.458,-13.633l-4.577,-5.682l-14.881,10.226l-5.723,-5.681l-5.723,4.545l11.446,10.225ZM396.222,562.621l19.458,-13.633l-4.577,-5.682l-14.881,10.226l-5.723,-5.681l-5.723,4.545l11.446,10.225ZM76.313,560.279l19.458,-13.634l-4.577,-5.681l-14.881,10.225l-5.723,-5.681l-5.723,4.545l11.446,10.226ZM984.04,527.042l19.458,-13.633l-4.577,-5.682l-14.881,10.226l-5.723,-5.681l-5.722,4.545l11.445,10.225ZM664.131,527.042l19.458,-13.633l-4.577,-5.682l-14.881,10.226l-5.723,-5.681l-5.723,4.545l11.446,10.225ZM237.586,527.042l19.458,-13.633l-4.578,-5.682l-14.88,10.226l-5.723,-5.681l-5.723,4.545l11.446,10.225ZM344.222,527.042l19.458,-13.633l-4.577,-5.682l-14.881,10.226l-5.723,-5.681l-5.723,4.545l11.446,10.225ZM450.858,527.042l19.459,-13.633l-4.578,-5.682l-14.881,10.226l-5.722,-5.681l-5.723,4.545l11.445,10.225ZM1197.31,527.042l19.458,-13.633l-4.577,-5.682l-14.881,10.226l-5.723,-5.681l-5.723,4.545l11.446,10.225ZM770.767,527.042l19.459,-13.633l-4.578,-5.682l-14.881,10.226l-5.722,-5.681l-5.723,4.545l11.445,10.225ZM877.404,527.042l19.458,-13.633l-4.577,-5.682l-14.881,10.226l-5.723,-5.681l-5.723,4.545l11.446,10.225ZM1090.68,527.042l19.458,-13.633l-4.578,-5.682l-14.88,10.226l-5.723,-5.681l-5.723,4.545l11.446,10.225ZM130.949,527.042l19.458,-13.633l-4.577,-5.682l-14.881,10.226l-5.723,-5.681l-5.722,4.545l11.445,10.225ZM557.495,527.042l19.458,-13.633l-4.578,-5.682l-14.88,10.226l-5.723,-5.681l-5.723,4.545l11.446,10.225ZM24.313,524.7l19.458,-13.634l-4.577,-5.681l-14.881,10.225l-5.723,-5.68l-5.723,4.544l11.446,10.226ZM502.858,486.221l19.459,-13.633l-4.578,-5.682l-14.881,10.226l-5.722,-5.681l-5.723,4.545l11.445,10.225ZM822.767,486.221l19.459,-13.633l-4.578,-5.682l-14.881,10.226l-5.722,-5.681l-5.723,4.545l11.445,10.225ZM929.404,486.221l19.458,-13.633l-4.577,-5.682l-14.881,10.226l-5.723,-5.681l-5.723,4.545l11.446,10.225ZM716.131,486.221l19.458,-13.633l-4.577,-5.682l-14.881,10.226l-5.723,-5.681l-5.723,4.545l11.446,10.225ZM1249.31,486.221l19.458,-13.633l-4.577,-5.682l-14.881,10.226l-5.723,-5.681l-5.723,4.545l11.446,10.225ZM1036.04,486.221l19.458,-13.633l-4.577,-5.682l-14.881,10.226l-5.723,-5.681l-5.722,4.545l11.445,10.225ZM289.586,486.221l19.458,-13.633l-4.578,-5.682l-14.88,10.226l-5.723,-5.681l-5.723,4.545l11.446,10.225ZM609.495,486.221l19.458,-13.633l-4.578,-5.682l-14.88,10.226l-5.723,-5.681l-5.723,4.545l11.446,10.225ZM1142.68,486.221l19.458,-13.633l-4.578,-5.682l-14.88,10.226l-5.723,-5.681l-5.723,4.545l11.446,10.225ZM182.949,486.221l19.458,-13.633l-4.577,-5.682l-14.881,10.226l-5.723,-5.681l-5.722,4.545l11.445,10.225ZM396.222,486.221l19.458,-13.633l-4.577,-5.682l-14.881,10.226l-5.723,-5.681l-5.723,4.545l11.446,10.225ZM76.313,483.879l19.458,-13.634l-4.577,-5.681l-14.881,10.225l-5.723,-5.681l-5.723,4.545l11.446,10.226ZM130.949,450.642l19.458,-13.633l-4.577,-5.682l-14.881,10.226l-5.723,-5.681l-5.722,4.545l11.445,10.225ZM1197.31,450.642l19.458,-13.633l-4.577,-5.682l-14.881,10.226l-5.723,-5.681l-5.723,4.545l11.446,10.225ZM344.222,450.642l19.458,-13.633l-4.577,-5.682l-14.881,10.226l-5.723,-5.681l-5.723,4.545l11.446,10.225ZM557.495,450.642l19.458,-13.633l-4.578,-5.682l-14.88,10.226l-5.723,-5.681l-5.723,4.545l11.446,10.225ZM664.131,450.642l19.458,-13.633l-4.577,-5.682l-14.881,10.226l-5.723,-5.681l-5.723,4.545l11.446,10.225ZM237.586,450.642l19.458,-13.633l-4.578,-5.682l-14.88,10.226l-5.723,-5.681l-5.723,4.545l11.446,10.225ZM770.767,450.642l19.459,-13.633l-4.578,-5.682l-14.881,10.226l-5.722,-5.681l-5.723,4.545l11.445,10.225ZM450.858,450.642l19.459,-13.633l-4.578,-5.682l-14.881,10.226l-5.722,-5.681l-5.723,4.545l11.445,10.225ZM1090.68,450.642l19.458,-13.633l-4.578,-5.682l-14.88,10.226l-5.723,-5.681l-5.723,4.545l11.446,10.225ZM877.404,450.642l19.458,-13.633l-4.577,-5.682l-14.881,10.226l-5.723,-5.681l-5.723,4.545l11.446,10.225ZM984.04,450.642l19.458,-13.633l-4.577,-5.682l-14.881,10.226l-5.723,-5.681l-5.722,4.545l11.445,10.225ZM24.313,448.3l19.458,-13.634l-4.577,-5.681l-14.881,10.225l-5.723,-5.68l-5.723,4.544l11.446,10.226ZM502.858,409.821l19.459,-13.633l-4.578,-5.682l-14.881,10.226l-5.722,-5.681l-5.723,4.545l11.445,10.225ZM1249.31,409.821l19.458,-13.633l-4.577,-5.682l-14.881,10.226l-5.723,-5.681l-5.723,4.545l11.446,10.225ZM1036.04,409.821l19.458,-13.633l-4.577,-5.682l-14.881,10.226l-5.723,-5.681l-5.722,4.545l11.445,10.225ZM929.404,409.821l19.458,-13.633l-4.577,-5.682l-14.881,10.226l-5.723,-5.681l-5.723,4.545l11.446,10.225ZM822.767,409.821l19.459,-13.633l-4.578,-5.682l-14.881,10.226l-5.722,-5.681l-5.723,4.545l11.445,10.225ZM289.586,409.821l19.458,-13.633l-4.578,-5.682l-14.88,10.226l-5.723,-5.681l-5.723,4.545l11.446,10.225ZM716.131,409.821l19.458,-13.633l-4.577,-5.682l-14.881,10.226l-5.723,-5.681l-5.723,4.545l11.446,10.225ZM182.949,409.821l19.458,-13.633l-4.577,-5.682l-14.881,10.226l-5.723,-5.681l-5.722,4.545l11.445,10.225ZM1142.68,409.821l19.458,-13.633l-4.578,-5.682l-14.88,10.226l-5.723,-5.681l-5.723,4.545l11.446,10.225ZM609.495,409.821l19.458,-13.633l-4.578,-5.682l-14.88,10.226l-5.723,-5.681l-5.723,4.545l11.446,10.225ZM396.222,409.821l19.458,-13.633l-4.577,-5.682l-14.881,10.226l-5.723,-5.681l-5.723,4.545l11.446,10.225ZM76.313,407.479l19.458,-13.634l-4.577,-5.681l-14.881,10.225l-5.723,-5.681l-5.723,4.545l11.446,10.226ZM130.949,374.242l19.458,-13.633l-4.577,-5.682l-14.881,10.226l-5.723,-5.681l-5.722,4.545l11.445,10.225ZM450.858,374.242l19.459,-13.633l-4.578,-5.682l-14.881,10.226l-5.722,-5.681l-5.723,4.545l11.445,10.225ZM877.404,374.242l19.458,-13.633l-4.577,-5.682l-14.881,10.226l-5.723,-5.681l-5.723,4.545l11.446,10.225ZM770.767,374.242l19.459,-13.633l-4.578,-5.682l-14.881,10.226l-5.722,-5.681l-5.723,4.545l11.445,10.225ZM557.495,374.242l19.458,-13.633l-4.578,-5.682l-14.88,10.226l-5.723,-5.681l-5.723,4.545l11.446,10.225ZM237.586,374.242l19.458,-13.633l-4.578,-5.682l-14.88,10.226l-5.723,-5.681l-5.723,4.545l11.446,10.225ZM664.131,374.242l19.458,-13.633l-4.577,-5.682l-14.881,10.226l-5.723,-5.681l-5.723,4.545l11.446,10.225ZM1197.31,374.242l19.458,-13.633l-4.577,-5.682l-14.881,10.226l-5.723,-5.681l-5.723,4.545l11.446,10.225ZM984.04,374.242l19.458,-13.633l-4.577,-5.682l-14.881,10.226l-5.723,-5.681l-5.722,4.545l11.445,10.225ZM344.222,374.242l19.458,-13.633l-4.577,-5.682l-14.881,10.226l-5.723,-5.681l-5.723,4.545l11.446,10.225ZM1090.68,374.242l19.458,-13.633l-4.578,-5.682l-14.88,10.226l-5.723,-5.681l-5.723,4.545l11.446,10.225ZM24.313,371.9l19.458,-13.634l-4.577,-5.681l-14.881,10.225l-5.723,-5.68l-5.723,4.544l11.446,10.226ZM1249.31,333.421l19.458,-13.633l-4.577,-5.682l-14.881,10.226l-5.723,-5.681l-5.723,4.545l11.446,10.225ZM716.131,333.421l19.458,-13.633l-4.577,-5.682l-14.881,10.226l-5.723,-5.681l-5.723,4.545l11.446,10.225ZM396.222,333.421l19.458,-13.633l-4.577,-5.682l-14.881,10.226l-5.723,-5.681l-5.723,4.545l11.446,10.225ZM1142.68,333.421l19.458,-13.633l-4.578,-5.682l-14.88,10.226l-5.723,-5.681l-5.723,4.545l11.446,10.225ZM822.767,333.421l19.459,-13.633l-4.578,-5.682l-14.881,10.226l-5.722,-5.681l-5.723,4.545l11.445,10.225ZM289.586,333.421l19.458,-13.633l-4.578,-5.682l-14.88,10.226l-5.723,-5.681l-5.723,4.545l11.446,10.225ZM609.495,333.421l19.458,-13.633l-4.578,-5.682l-14.88,10.226l-5.723,-5.681l-5.723,4.545l11.446,10.225ZM182.949,333.421l19.458,-13.633l-4.577,-5.682l-14.881,10.226l-5.723,-5.681l-5.722,4.545l11.445,10.225ZM929.404,333.421l19.458,-13.633l-4.577,-5.682l-14.881,10.226l-5.723,-5.681l-5.723,4.545l11.446,10.225ZM502.858,333.421l19.459,-13.633l-4.578,-5.682l-14.881,10.226l-5.722,-5.681l-5.723,4.545l11.445,10.225ZM1036.04,333.421l19.458,-13.633l-4.577,-5.682l-14.881,10.226l-5.723,-5.681l-5.722,4.545l11.445,10.225ZM76.313,331.079l19.458,-13.634l-4.577,-5.681l-14.881,10.225l-5.723,-5.681l-5.723,4.545l11.446,10.226ZM664.131,297.842l19.458,-13.633l-4.577,-5.682l-14.881,10.226l-5.723,-5.681l-5.723,4.545l11.446,10.225ZM450.858,297.842l19.459,-13.633l-4.578,-5.682l-14.881,10.226l-5.722,-5.681l-5.723,4.545l11.445,10.225ZM984.04,297.842l19.458,-13.633l-4.577,-5.682l-14.881,10.226l-5.723,-5.681l-5.722,4.545l11.445,10.225ZM770.767,297.842l19.459,-13.633l-4.578,-5.682l-14.881,10.226l-5.722,-5.681l-5.723,4.545l11.445,10.225ZM1090.68,297.842l19.458,-13.633l-4.578,-5.682l-14.88,10.226l-5.723,-5.681l-5.723,4.545l11.446,10.225ZM130.949,297.842l19.458,-13.633l-4.577,-5.682l-14.881,10.226l-5.723,-5.681l-5.722,4.545l11.445,10.225ZM344.222,297.842l19.458,-13.633l-4.577,-5.682l-14.881,10.226l-5.723,-5.681l-5.723,4.545l11.446,10.225ZM877.404,297.842l19.458,-13.633l-4.577,-5.682l-14.881,10.226l-5.723,-5.681l-5.723,4.545l11.446,10.225ZM1197.31,297.842l19.458,-13.633l-4.577,-5.682l-14.881,10.226l-5.723,-5.681l-5.723,4.545l11.446,10.225ZM557.495,297.842l19.458,-13.633l-4.578,-5.682l-14.88,10.226l-5.723,-5.681l-5.723,4.545l11.446,10.225ZM237.586,297.842l19.458,-13.633l-4.578,-5.682l-14.88,10.226l-5.723,-5.681l-5.723,4.545l11.446,10.225ZM24.313,295.5l19.458,-13.634l-4.577,-5.681l-14.881,10.225l-5.723,-5.68l-5.723,4.544l11.446,10.226ZM1249.31,257.021l19.458,-13.633l-4.577,-5.682l-14.881,10.226l-5.723,-5.681l-5.723,4.545l11.446,10.225ZM289.586,257.021l19.458,-13.633l-4.578,-5.682l-14.88,10.226l-5.723,-5.681l-5.723,4.545l11.446,10.225ZM1142.68,257.021l19.458,-13.633l-4.578,-5.682l-14.88,10.226l-5.723,-5.681l-5.723,4.545l11.446,10.225ZM396.222,257.021l19.458,-13.633l-4.577,-5.682l-14.881,10.226l-5.723,-5.681l-5.723,4.545l11.446,10.225ZM1036.04,257.021l19.458,-13.633l-4.577,-5.682l-14.881,10.226l-5.723,-5.681l-5.722,4.545l11.445,10.225ZM822.767,257.021l19.459,-13.633l-4.578,-5.682l-14.881,10.226l-5.722,-5.681l-5.723,4.545l11.445,10.225ZM502.858,257.021l19.459,-13.633l-4.578,-5.682l-14.881,10.226l-5.722,-5.681l-5.723,4.545l11.445,10.225ZM182.949,257.021l19.458,-13.633l-4.577,-5.682l-14.881,10.226l-5.723,-5.681l-5.722,4.545l11.445,10.225ZM609.495,257.021l19.458,-13.633l-4.578,-5.682l-14.88,10.226l-5.723,-5.681l-5.723,4.545l11.446,10.225ZM929.404,257.021l19.458,-13.633l-4.577,-5.682l-14.881,10.226l-5.723,-5.681l-5.723,4.545l11.446,10.225ZM716.131,257.021l19.458,-13.633l-4.577,-5.682l-14.881,10.226l-5.723,-5.681l-5.723,4.545l11.446,10.225ZM76.313,254.679l19.458,-13.634l-4.577,-5.681l-14.881,10.225l-5.723,-5.681l-5.723,4.545l11.446,10.226ZM237.586,221.442l19.458,-13.633l-4.578,-5.682l-14.88,10.226l-5.723,-5.681l-5.723,4.545l11.446,10.225ZM877.404,221.442l19.458,-13.633l-4.577,-5.682l-14.881,10.226l-5.723,-5.681l-5.723,4.545l11.446,10.225ZM1090.68,221.442l19.458,-13.633l-4.578,-5.682l-14.88,10.226l-5.723,-5.681l-5.723,4.545l11.446,10.225ZM450.858,221.442l19.459,-13.633l-4.578,-5.682l-14.881,10.226l-5.722,-5.681l-5.723,4.545l11.445,10.225ZM664.131,221.442l19.458,-13.633l-4.577,-5.682l-14.881,10.226l-5.723,-5.681l-5.723,4.545l11.446,10.225ZM557.495,221.442l19.458,-13.633l-4.578,-5.682l-14.88,10.226l-5.723,-5.681l-5.723,4.545l11.446,10.225ZM344.222,221.442l19.458,-13.633l-4.577,-5.682l-14.881,10.226l-5.723,-5.681l-5.723,4.545l11.446,10.225ZM770.767,221.442l19.459,-13.633l-4.578,-5.682l-14.881,10.226l-5.722,-5.681l-5.723,4.545l11.445,10.225ZM1197.31,221.442l19.458,-13.633l-4.577,-5.682l-14.881,10.226l-5.723,-5.681l-5.723,4.545l11.446,10.225ZM130.949,221.442l19.458,-13.633l-4.577,-5.682l-14.881,10.226l-5.723,-5.681l-5.722,4.545l11.445,10.225ZM984.04,221.442l19.458,-13.633l-4.577,-5.682l-14.881,10.226l-5.723,-5.681l-5.722,4.545l11.445,10.225ZM24.313,219.1l19.458,-13.634l-4.577,-5.681l-14.881,10.225l-5.723,-5.68l-5.723,4.544l11.446,10.226ZM502.858,180.621l19.459,-13.633l-4.578,-5.682l-14.881,10.226l-5.722,-5.681l-5.723,4.545l11.445,10.225ZM716.131,180.621l19.458,-13.633l-4.577,-5.682l-14.881,10.226l-5.723,-5.681l-5.723,4.545l11.446,10.225ZM396.222,180.621l19.458,-13.633l-4.577,-5.682l-14.881,10.226l-5.723,-5.681l-5.723,4.545l11.446,10.225ZM1249.31,180.621l19.458,-13.633l-4.577,-5.682l-14.881,10.226l-5.723,-5.681l-5.723,4.545l11.446,10.225ZM1036.04,180.621l19.458,-13.633l-4.577,-5.682l-14.881,10.226l-5.723,-5.681l-5.722,4.545l11.445,10.225ZM609.495,180.621l19.458,-13.633l-4.578,-5.682l-14.88,10.226l-5.723,-5.681l-5.723,4.545l11.446,10.225ZM289.586,180.621l19.458,-13.633l-4.578,-5.682l-14.88,10.226l-5.723,-5.681l-5.723,4.545l11.446,10.225ZM929.404,180.621l19.458,-13.633l-4.577,-5.682l-14.881,10.226l-5.723,-5.681l-5.723,4.545l11.446,10.225ZM1142.68,180.621l19.458,-13.633l-4.578,-5.682l-14.88,10.226l-5.723,-5.681l-5.723,4.545l11.446,10.225ZM822.767,180.621l19.459,-13.633l-4.578,-5.682l-14.881,10.226l-5.722,-5.681l-5.723,4.545l11.445,10.225ZM182.949,180.621l19.458,-13.633l-4.577,-5.682l-14.881,10.226l-5.723,-5.681l-5.722,4.545l11.445,10.225ZM76.313,178.279l19.458,-13.634l-4.577,-5.681l-14.881,10.225l-5.723,-5.681l-5.723,4.545l11.446,10.226ZM1090.68,145.042l19.458,-13.633l-4.578,-5.682l-14.88,10.226l-5.723,-5.681l-5.723,4.545l11.446,10.225ZM770.767,145.042l19.459,-13.633l-4.578,-5.682l-14.881,10.226l-5.722,-5.681l-5.723,4.545l11.445,10.225ZM664.131,145.042l19.458,-13.633l-4.577,-5.682l-14.881,10.226l-5.723,-5.681l-5.723,4.545l11.446,10.225ZM344.222,145.042l19.458,-13.633l-4.577,-5.682l-14.881,10.226l-5.723,-5.681l-5.723,4.545l11.446,10.225ZM1197.31,145.042l19.458,-13.633l-4.577,-5.682l-14.881,10.226l-5.723,-5.681l-5.723,4.545l11.446,10.225ZM984.04,145.042l19.458,-13.633l-4.577,-5.682l-14.881,10.226l-5.723,-5.681l-5.722,4.545l11.445,10.225ZM877.404,145.042l19.458,-13.633l-4.577,-5.682l-14.881,10.226l-5.723,-5.681l-5.723,4.545l11.446,10.225ZM557.495,145.042l19.458,-13.633l-4.578,-5.682l-14.88,10.226l-5.723,-5.681l-5.723,4.545l11.446,10.225ZM237.586,145.042l19.458,-13.633l-4.578,-5.682l-14.88,10.226l-5.723,-5.681l-5.723,4.545l11.446,10.225ZM130.949,145.042l19.458,-13.633l-4.577,-5.682l-14.881,10.226l-5.723,-5.681l-5.722,4.545l11.445,10.225ZM450.858,145.042l19.459,-13.633l-4.578,-5.682l-14.881,10.226l-5.722,-5.681l-5.723,4.545l11.445,10.225ZM24.313,142.7l19.458,-13.634l-4.577,-5.681l-14.881,10.225l-5.723,-5.68l-5.723,4.544l11.446,10.226ZM1142.68,104.221l19.458,-13.633l-4.578,-5.682l-14.88,10.226l-5.723,-5.681l-5.723,4.545l11.446,10.225ZM1249.31,104.221l19.458,-13.633l-4.577,-5.682l-14.881,10.226l-5.723,-5.681l-5.723,4.545l11.446,10.225ZM182.949,104.221l19.458,-13.633l-4.577,-5.682l-14.881,10.226l-5.723,-5.681l-5.722,4.545l11.445,10.225ZM929.404,104.221l19.458,-13.633l-4.577,-5.682l-14.881,10.226l-5.723,-5.681l-5.723,4.545l11.446,10.225ZM822.767,104.221l19.459,-13.633l-4.578,-5.682l-14.881,10.226l-5.722,-5.681l-5.723,4.545l11.445,10.225ZM1036.04,104.221l19.458,-13.633l-4.577,-5.682l-14.881,10.226l-5.723,-5.681l-5.722,4.545l11.445,10.225ZM502.858,104.221l19.459,-13.633l-4.578,-5.682l-14.881,10.226l-5.722,-5.681l-5.723,4.545l11.445,10.225ZM289.586,104.221l19.458,-13.633l-4.578,-5.682l-14.88,10.226l-5.723,-5.681l-5.723,4.545l11.446,10.225ZM609.495,104.221l19.458,-13.633l-4.578,-5.682l-14.88,10.226l-5.723,-5.681l-5.723,4.545l11.446,10.225ZM716.131,104.221l19.458,-13.633l-4.577,-5.682l-14.881,10.226l-5.723,-5.681l-5.723,4.545l11.446,10.225ZM396.222,104.221l19.458,-13.633l-4.577,-5.682l-14.881,10.226l-5.723,-5.681l-5.723,4.545l11.446,10.225ZM76.313,101.879l19.458,-13.634l-4.577,-5.681l-14.881,10.225l-5.723,-5.681l-5.723,4.545l11.446,10.226ZM237.586,68.642l19.458,-13.633l-4.578,-5.682l-14.88,10.226l-5.723,-5.681l-5.723,4.545l11.446,10.225ZM664.131,68.642l19.458,-13.633l-4.577,-5.682l-14.881,10.226l-5.723,-5.681l-5.723,4.545l11.446,10.225ZM450.858,68.642l19.459,-13.633l-4.578,-5.682l-14.881,10.226l-5.722,-5.681l-5.723,4.545l11.445,10.225ZM1197.31,68.642l19.458,-13.633l-4.577,-5.682l-14.881,10.226l-5.723,-5.681l-5.723,4.545l11.446,10.225ZM557.495,68.642l19.458,-13.633l-4.578,-5.682l-14.88,10.226l-5.723,-5.681l-5.723,4.545l11.446,10.225ZM344.222,68.642l19.458,-13.633l-4.577,-5.682l-14.881,10.226l-5.723,-5.681l-5.723,4.545l11.446,10.225ZM130.949,68.642l19.458,-13.633l-4.577,-5.682l-14.881,10.226l-5.723,-5.681l-5.722,4.545l11.445,10.225ZM1090.68,68.642l19.458,-13.633l-4.578,-5.682l-14.88,10.226l-5.723,-5.681l-5.723,4.545l11.446,10.225ZM984.04,68.642l19.458,-13.633l-4.577,-5.682l-14.881,10.226l-5.723,-5.681l-5.722,4.545l11.445,10.225ZM770.767,68.642l19.459,-13.633l-4.578,-5.682l-14.881,10.226l-5.722,-5.681l-5.723,4.545l11.445,10.225ZM877.404,68.642l19.458,-13.633l-4.577,-5.682l-14.881,10.226l-5.723,-5.681l-5.723,4.545l11.446,10.225ZM24.313,66.3l19.458,-13.634l-4.577,-5.681l-14.881,10.225l-5.723,-5.68l-5.723,4.544l11.446,10.226ZM1249.31,27.821l19.458,-13.633l-4.577,-5.682l-14.881,10.226l-5.723,-5.681l-5.723,4.545l11.446,10.225ZM182.949,27.821l19.458,-13.633l-4.577,-5.682l-14.881,10.226l-5.723,-5.681l-5.722,4.545l11.445,10.225ZM502.858,27.821l19.459,-13.633l-4.578,-5.682l-14.881,10.226l-5.722,-5.681l-5.723,4.545l11.445,10.225ZM289.586,27.821l19.458,-13.633l-4.578,-5.682l-14.88,10.226l-5.723,-5.681l-5.723,4.545l11.446,10.225ZM1036.04,27.821l19.458,-13.633l-4.577,-5.682l-14.881,10.226l-5.723,-5.681l-5.722,4.545l11.445,10.225ZM716.131,27.821l19.458,-13.633l-4.577,-5.682l-14.881,10.226l-5.723,-5.681l-5.723,4.545l11.446,10.225ZM929.404,27.821l19.458,-13.633l-4.577,-5.682l-14.881,10.226l-5.723,-5.681l-5.723,4.545l11.446,10.225ZM822.767,27.821l19.459,-13.633l-4.578,-5.682l-14.881,10.226l-5.722,-5.681l-5.723,4.545l11.445,10.225ZM1142.68,27.821l19.458,-13.633l-4.578,-5.682l-14.88,10.226l-5.723,-5.681l-5.723,4.545l11.446,10.225ZM609.495,27.821l19.458,-13.633l-4.578,-5.682l-14.88,10.226l-5.723,-5.681l-5.723,4.545l11.446,10.225ZM396.222,27.821l19.458,-13.633l-4.577,-5.682l-14.881,10.226l-5.723,-5.681l-5.723,4.545l11.446,10.225ZM76.313,25.479l19.458,-13.634l-4.577,-5.681l-14.881,10.225l-5.723,-5.681l-5.723,4.545l11.446,10.226Z"/></clipPath><g clip-path="url(#_clip1)"><path d="M716.131,27.821l19.458,-13.633l-4.577,-5.682l-14.881,10.226l-5.723,-5.681l-5.723,4.545l11.446,10.225Z" style="fill:#49d44c;fill-opacity:0.14902;"/><path d="M716.131,104.221l19.458,-13.633l-4.577,-5.682l-14.881,10.226l-5.723,-5.681l-5.723,4.545l11.446,10.225Z" style="fill:#49d44c;fill-opacity:0.14902;"/><path d="M716.131,180.621l19.458,-13.633l-4.577,-5.682l-14.881,10.226l-5.723,-5.681l-5.723,4.545l11.446,10.225Z" style="fill:#49d44c;fill-opacity:0.14902;"/><path d="M716.131,257.021l19.458,-13.633l-4.577,-5.682l-14.881,10.226l-5.723,-5.681l-5.723,4.545l11.446,10.225Z" style="fill:#49d44c;fill-opacity:0.14902;"/><path d="M716.131,333.421l19.458,-13.633l-4.577,-5.682l-14.881,10.226l-5.723,-5.681l-5.723,4.545l11.446,10.225Z" style="fill:#49d44c;fill-opacity:0.14902;"/><path d="M716.131,409.821l19.458,-13.633l-4.577,-5.682l-14.881,10.226l-5.723,-5.681l-5.723,4.545l11.446,10.225Z" style="fill:#49d44c;fill-opacity:0.14902;"/><path d="M716.131,486.221l19.458,-13.633l-4.577,-5.682l-14.881,10.226l-5.723,-5.681l-5.723,4.545l11.446,10.225Z" style="fill:#49d44c;fill-opacity:0.14902;"/><path d="M716.131,562.621l19.458,-13.633l-4.577,-5.682l-14.881,10.226l-5.723,-5.681l-5.723,4.545l11.446,10.225Z" style="fill:#49d44c;fill-opacity:0.14902;"/><path d="M716.131,639.021l19.458,-13.633l-4.577,-5.682l-14.881,10.226l-5.723,-5.681l-5.723,4.545l11.446,10.225Z" style="fill:#49d44c;fill-opacity:0.14902;"/><path d="M716.131,715.421l19.458,-13.633l-4.577,-5.682l-14.881,10.226l-5.723,-5.681l-5.723,4.545l11.446,10.225Z" style="fill:#49d44c;fill-opacity:0.14902;"/><path d="M716.131,791.821l19.458,-13.633l-4.577,-5.682l-14.881,10.226l-5.723,-5.681l-5.723,4.545l11.446,10.225Z" style="fill:#49d44c;fill-opacity:0.14902;"/><path d="M664.131,68.642l19.458,-13.633l-4.577,-5.682l-14.881,10.226l-5.723,-5.681l-5.723,4.545l11.446,10.225Z" style="fill:#49d44c;fill-opacity:0.14902;"/><path d="M664.131,145.042l19.458,-13.633l-4.577,-5.682l-14.881,10.226l-5.723,-5.681l-5.723,4.545l11.446,10.225Z" style="fill:#49d44c;fill-opacity:0.14902;"/><path d="M664.131,221.442l19.458,-13.633l-4.577,-5.682l-14.881,10.226l-5.723,-5.681l-5.723,4.545l11.446,10.225Z" style="fill:#49d44c;fill-opacity:0.14902;"/><path d="M664.131,297.842l19.458,-13.633l-4.577,-5.682l-14.881,10.226l-5.723,-5.681l-5.723,4.545l11.446,10.225Z" style="fill:#49d44c;fill-opacity:0.14902;"/><path d="M664.131,374.242l19.458,-13.633l-4.577,-5.682l-14.881,10.226l-5.723,-5.681l-5.723,4.545l11.446,10.225Z" style="fill:#49d44c;fill-opacity:0.14902;"/><path d="M664.131,450.642l19.458,-13.633l-4.577,-5.682l-14.881,10.226l-5.723,-5.681l-5.723,4.545l11.446,10.225Z" style="fill:#49d44c;fill-opacity:0.14902;"/><path d="M664.131,527.042l19.458,-13.633l-4.577,-5.682l-14.881,10.226l-5.723,-5.681l-5.723,4.545l11.446,10.225Z" style="fill:#49d44c;fill-opacity:0.14902;"/><path d="M664.131,603.442l19.458,-13.633l-4.577,-5.682l-14.881,10.226l-5.723,-5.681l-5.723,4.545l11.446,10.225Z" style="fill:#49d44c;fill-opacity:0.14902;"/><path d="M664.131,679.842l19.458,-13.633l-4.577,-5.682l-14.881,10.226l-5.723,-5.681l-5.723,4.545l11.446,10.225Z" style="fill:#49d44c;fill-opacity:0.14902;"/><path d="M664.131,756.242l19.458,-13.633l-4.577,-5.682l-14.881,10.226l-5.723,-5.681l-5.723,4.545l11.446,10.225Z" style="fill:#49d44c;fill-opacity:0.14902;"/><path d="M182.949,27.821l19.458,-13.633l-4.577,-5.682l-14.881,10.226l-5.723,-5.681l-5.722,4.545l11.445,10.225Z" style="fill:#49d44c;fill-opacity:0.14902;"/><path d="M182.949,104.221l19.458,-13.633l-4.577,-5.682l-14.881,10.226l-5.723,-5.681l-5.722,4.545l11.445,10.225Z" style="fill:#49d44c;fill-opacity:0.14902;"/><path d="M182.949,180.621l19.458,-13.633l-4.577,-5.682l-14.881,10.226l-5.723,-5.681l-5.722,4.545l11.445,10.225Z" style="fill:#49d44c;fill-opacity:0.14902;"/><path d="M182.949,257.021l19.458,-13.633l-4.577,-5.682l-14.881,10.226l-5.723,-5.681l-5.722,4.545l11.445,10.225Z" style="fill:#49d44c;fill-opacity:0.14902;"/><path d="M182.949,333.421l19.458,-13.633l-4.577,-5.682l-14.881,10.226l-5.723,-5.681l-5.722,4.545l11.445,10.225Z" style="fill:#49d44c;fill-opacity:0.14902;"/><path d="M182.949,409.821l19.458,-13.633l-4.577,-5.682l-14.881,10.226l-5.723,-5.681l-5.722,4.545l11.445,10.225Z" style="fill:#49d44c;fill-opacity:0.14902;"/><path d="M182.949,486.221l19.458,-13.633l-4.577,-5.682l-14.881,10.226l-5.723,-5.681l-5.722,4.545l11.445,10.225Z" style="fill:#49d44c;fill-opacity:0.14902;"/><path d="M182.949,562.621l19.458,-13.633l-4.577,-5.682l-14.881,10.226l-5.723,-5.681l-5.722,4.545l11.445,10.225Z" style="fill:#49d44c;fill-opacity:0.14902;"/><path d="M182.949,639.021l19.458,-13.633l-4.577,-5.682l-14.881,10.226l-5.723,-5.681l-5.722,4.545l11.445,10.225Z" style="fill:#49d44c;fill-opacity:0.14902;"/><path d="M182.949,715.421l19.458,-13.633l-4.577,-5.682l-14.881,10.226l-5.723,-5.681l-5.722,4.545l11.445,10.225Z" style="fill:#49d44c;fill-opacity:0.14902;"/><path d="M182.949,791.821l19.458,-13.633l-4.577,-5.682l-14.881,10.226l-5.723,-5.681l-5.722,4.545l11.445,10.225Z" style="fill:#49d44c;fill-opacity:0.14902;"/><path d="M130.949,68.642l19.458,-13.633l-4.577,-5.682l-14.881,10.226l-5.723,-5.681l-5.722,4.545l11.445,10.225Z" style="fill:#49d44c;fill-opacity:0.14902;"/><path d="M130.949,145.042l19.458,-13.633l-4.577,-5.682l-14.881,10.226l-5.723,-5.681l-5.722,4.545l11.445,10.225Z" style="fill:#49d44c;fill-opacity:0.14902;"/><path d="M130.949,221.442l19.458,-13.633l-4.577,-5.682l-14.881,10.226l-5.723,-5.681l-5.722,4.545l11.445,10.225Z" style="fill:#49d44c;fill-opacity:0.14902;"/><path d="M130.949,297.842l19.458,-13.633l-4.577,-5.682l-14.881,10.226l-5.723,-5.681l-5.722,4.545l11.445,10.225Z" style="fill:#49d44c;fill-opacity:0.14902;"/><path d="M130.949,374.242l19.458,-13.633l-4.577,-5.682l-14.881,10.226l-5.723,-5.681l-5.722,4.545l11.445,10.225Z" style="fill:#49d44c;fill-opacity:0.14902;"/><path d="M130.949,450.642l19.458,-13.633l-4.577,-5.682l-14.881,10.226l-5.723,-5.681l-5.722,4.545l11.445,10.225Z" style="fill:#49d44c;fill-opacity:0.14902;"/><path d="M130.949,527.042l19.458,-13.633l-4.577,-5.682l-14.881,10.226l-5.723,-5.681l-5.722,4.545l11.445,10.225Z" style="fill:#49d44c;fill-opacity:0.14902;"/><path d="M130.949,603.442l19.458,-13.633l-4.577,-5.682l-14.881,10.226l-5.723,-5.681l-5.722,4.545l11.445,10.225Z" style="fill:#49d44c;fill-opacity:0.14902;"/><path d="M130.949,679.842l19.458,-13.633l-4.577,-5.682l-14.881,10.226l-5.723,-5.681l-5.722,4.545l11.445,10.225Z" style="fill:#49d44c;fill-opacity:0.14902;"/><path d="M130.949,756.242l19.458,-13.633l-4.577,-5.682l-14.881,10.226l-5.723,-5.681l-5.722,4.545l11.445,10.225Z" style="fill:#49d44c;fill-opacity:0.14902;"/><path d="M289.586,27.821l19.458,-13.633l-4.578,-5.682l-14.88,10.226l-5.723,-5.681l-5.723,4.545l11.446,10.225Z" style="fill:#49d44c;fill-opacity:0.14902;"/><path d="M289.586,104.221l19.458,-13.633l-4.578,-5.682l-14.88,10.226l-5.723,-5.681l-5.723,4.545l11.446,10.225Z" style="fill:#49d44c;fill-opacity:0.14902;"/><path d="M289.586,180.621l19.458,-13.633l-4.578,-5.682l-14.88,10.226l-5.723,-5.681l-5.723,4.545l11.446,10.225Z" style="fill:#49d44c;fill-opacity:0.14902;"/><path d="M289.586,257.021l19.458,-13.633l-4.578,-5.682l-14.88,10.226l-5.723,-5.681l-5.723,4.545l11.446,10.225Z" style="fill:#49d44c;fill-opacity:0.14902;"/><path d="M289.586,333.421l19.458,-13.633l-4.578,-5.682l-14.88,10.226l-5.723,-5.681l-5.723,4.545l11.446,10.225Z" style="fill:#49d44c;fill-opacity:0.14902;"/><path d="M289.586,409.821l19.458,-13.633l-4.578,-5.682l-14.88,10.226l-5.723,-5.681l-5.723,4.545l11.446,10.225Z" style="fill:#49d44c;fill-opacity:0.14902;"/><path d="M289.586,486.221l19.458,-13.633l-4.578,-5.682l-14.88,10.226l-5.723,-5.681l-5.723,4.545l11.446,10.225Z" style="fill:#49d44c;fill-opacity:0.14902;"/><path d="M289.586,562.621l19.458,-13.633l-4.578,-5.682l-14.88,10.226l-5.723,-5.681l-5.723,4.545l11.446,10.225Z" style="fill:#49d44c;fill-opacity:0.14902;"/><path d="M289.586,639.021l19.458,-13.633l-4.578,-5.682l-14.88,10.226l-5.723,-5.681l-5.723,4.545l11.446,10.225Z" style="fill:#49d44c;fill-opacity:0.14902;"/><path d="M289.586,715.421l19.458,-13.633l-4.578,-5.682l-14.88,10.226l-5.723,-5.681l-5.723,4.545l11.446,10.225Z" style="fill:#49d44c;fill-opacity:0.14902;"/><path d="M289.586,791.821l19.458,-13.633l-4.578,-5.682l-14.88,10.226l-5.723,-5.681l-5.723,4.545l11.446,10.225Z" style="fill:#49d44c;fill-opacity:0.14902;"/><path d="M237.586,68.642l19.458,-13.633l-4.578,-5.682l-14.88,10.226l-5.723,-5.681l-5.723,4.545l11.446,10.225Z" style="fill:#49d44c;fill-opacity:0.14902;"/><path d="M237.586,145.042l19.458,-13.633l-4.578,-5.682l-14.88,10.226l-5.723,-5.681l-5.723,4.545l11.446,10.225Z" style="fill:#49d44c;fill-opacity:0.14902;"/><path d="M237.586,221.442l19.458,-13.633l-4.578,-5.682l-14.88,10.226l-5.723,-5.681l-5.723,4.545l11.446,10.225Z" style="fill:#49d44c;fill-opacity:0.14902;"/><path d="M237.586,297.842l19.458,-13.633l-4.578,-5.682l-14.88,10.226l-5.723,-5.681l-5.723,4.545l11.446,10.225Z" style="fill:#49d44c;fill-opacity:0.14902;"/><path d="M237.586,374.242l19.458,-13.633l-4.578,-5.682l-14.88,10.226l-5.723,-5.681l-5.723,4.545l11.446,10.225Z" style="fill:#49d44c;fill-opacity:0.14902;"/><path d="M237.586,450.642l19.458,-13.633l-4.578,-5.682l-14.88,10.226l-5.723,-5.681l-5.723,4.545l11.446,10.225Z" style="fill:#49d44c;fill-opacity:0.14902;"/><path d="M237.586,527.042l19.458,-13.633l-4.578,-5.682l-14.88,10.226l-5.723,-5.681l-5.723,4.545l11.446,10.225Z" style="fill:#49d44c;fill-opacity:0.14902;"/><path d="M237.586,603.442l19.458,-13.633l-4.578,-5.682l-14.88,10.226l-5.723,-5.681l-5.723,4.545l11.446,10.225Z" style="fill:#49d44c;fill-opacity:0.14902;"/><path d="M237.586,679.842l19.458,-13.633l-4.578,-5.682l-14.88,10.226l-5.723,-5.681l-5.723,4.545l11.446,10.225Z" style="fill:#49d44c;fill-opacity:0.14902;"/><path d="M237.586,756.242l19.458,-13.633l-4.578,-5.682l-14.88,10.226l-5.723,-5.681l-5.723,4.545l11.446,10.225Z" style="fill:#49d44c;fill-opacity:0.14902;"/><path d="M396.222,27.821l19.458,-13.633l-4.577,-5.682l-14.881,10.226l-5.723,-5.681l-5.723,4.545l11.446,10.225Z" style="fill:#49d44c;fill-opacity:0.14902;"/><path d="M396.222,104.221l19.458,-13.633l-4.577,-5.682l-14.881,10.226l-5.723,-5.681l-5.723,4.545l11.446,10.225Z" style="fill:#49d44c;fill-opacity:0.14902;"/><path d="M396.222,180.621l19.458,-13.633l-4.577,-5.682l-14.881,10.226l-5.723,-5.681l-5.723,4.545l11.446,10.225Z" style="fill:#49d44c;fill-opacity:0.14902;"/><path d="M396.222,257.021l19.458,-13.633l-4.577,-5.682l-14.881,10.226l-5.723,-5.681l-5.723,4.545l11.446,10.225Z" style="fill:#49d44c;fill-opacity:0.14902;"/><path d="M396.222,333.421l19.458,-13.633l-4.577,-5.682l-14.881,10.226l-5.723,-5.681l-5.723,4.545l11.446,10.225Z" style="fill:#49d44c;fill-opacity:0.14902;"/><path d="M396.222,409.821l19.458,-13.633l-4.577,-5.682l-14.881,10.226l-5.723,-5.681l-5.723,4.545l11.446,10.225Z" style="fill:#49d44c;fill-opacity:0.14902;"/><path d="M396.222,486.221l19.458,-13.633l-4.577,-5.682l-14.881,10.226l-5.723,-5.681l-5.723,4.545l11.446,10.225Z" style="fill:#49d44c;fill-opacity:0.14902;"/><path d="M396.222,562.621l19.458,-13.633l-4.577,-5.682l-14.881,10.226l-5.723,-5.681l-5.723,4.545l11.446,10.225Z" style="fill:#49d44c;fill-opacity:0.14902;"/><path d="M396.222,639.021l19.458,-13.633l-4.577,-5.682l-14.881,10.226l-5.723,-5.681l-5.723,4.545l11.446,10.225Z" style="fill:#49d44c;fill-opacity:0.14902;"/><path d="M396.222,715.421l19.458,-13.633l-4.577,-5.682l-14.881,10.226l-5.723,-5.681l-5.723,4.545l11.446,10.225Z" style="fill:#49d44c;fill-opacity:0.14902;"/><path d="M396.222,791.821l19.458,-13.633l-4.577,-5.682l-14.881,10.226l-5.723,-5.681l-5.723,4.545l11.446,10.225Z" style="fill:#49d44c;fill-opacity:0.14902;"/><path d="M344.222,68.642l19.458,-13.633l-4.577,-5.682l-14.881,10.226l-5.723,-5.681l-5.723,4.545l11.446,10.225Z" style="fill:#49d44c;fill-opacity:0.14902;"/><path d="M344.222,145.042l19.458,-13.633l-4.577,-5.682l-14.881,10.226l-5.723,-5.681l-5.723,4.545l11.446,10.225Z" style="fill:#49d44c;fill-opacity:0.14902;"/><path d="M344.222,221.442l19.458,-13.633l-4.577,-5.682l-14.881,10.226l-5.723,-5.681l-5.723,4.545l11.446,10.225Z" style="fill:#49d44c;fill-opacity:0.14902;"/><path d="M344.222,297.842l19.458,-13.633l-4.577,-5.682l-14.881,10.226l-5.723,-5.681l-5.723,4.545l11.446,10.225Z" style="fill:#49d44c;fill-opacity:0.14902;"/><path d="M344.222,374.242l19.458,-13.633l-4.577,-5.682l-14.881,10.226l-5.723,-5.681l-5.723,4.545l11.446,10.225Z" style="fill:#49d44c;fill-opacity:0.14902;"/><path d="M344.222,450.642l19.458,-13.633l-4.577,-5.682l-14.881,10.226l-5.723,-5.681l-5.723,4.545l11.446,10.225Z" style="fill:#49d44c;fill-opacity:0.14902;"/><path d="M344.222,527.042l19.458,-13.633l-4.577,-5.682l-14.881,10.226l-5.723,-5.681l-5.723,4.545l11.446,10.225Z" style="fill:#49d44c;fill-opacity:0.14902;"/><path d="M344.222,603.442l19.458,-13.633l-4.577,-5.682l-14.881,10.226l-5.723,-5.681l-5.723,4.545l11.446,10.225Z" style="fill:#49d44c;fill-opacity:0.14902;"/><path d="M344.222,679.842l19.458,-13.633l-4.577,-5.682l-14.881,10.226l-5.723,-5.681l-5.723,4.545l11.446,10.225Z" style="fill:#49d44c;fill-opacity:0.14902;"/><path d="M344.222,756.242l19.458,-13.633l-4.577,-5.682l-14.881,10.226l-5.723,-5.681l-5.723,4.545l11.446,10.225Z" style="fill:#49d44c;fill-opacity:0.14902;"/><path d="M502.858,27.821l19.459,-13.633l-4.578,-5.682l-14.881,10.226l-5.722,-5.681l-5.723,4.545l11.445,10.225Z" style="fill:#49d44c;fill-opacity:0.14902;"/><path d="M502.858,104.221l19.459,-13.633l-4.578,-5.682l-14.881,10.226l-5.722,-5.681l-5.723,4.545l11.445,10.225Z" style="fill:#49d44c;fill-opacity:0.14902;"/><path d="M502.858,180.621l19.459,-13.633l-4.578,-5.682l-14.881,10.226l-5.722,-5.681l-5.723,4.545l11.445,10.225Z" style="fill:#49d44c;fill-opacity:0.14902;"/><path d="M502.858,257.021l19.459,-13.633l-4.578,-5.682l-14.881,10.226l-5.722,-5.681l-5.723,4.545l11.445,10.225Z" style="fill:#49d44c;fill-opacity:0.14902;"/><path d="M502.858,333.421l19.459,-13.633l-4.578,-5.682l-14.881,10.226l-5.722,-5.681l-5.723,4.545l11.445,10.225Z" style="fill:#49d44c;fill-opacity:0.14902;"/><path d="M502.858,409.821l19.459,-13.633l-4.578,-5.682l-14.881,10.226l-5.722,-5.681l-5.723,4.545l11.445,10.225Z" style="fill:#49d44c;fill-opacity:0.14902;"/><path d="M502.858,486.221l19.459,-13.633l-4.578,-5.682l-14.881,10.226l-5.722,-5.681l-5.723,4.545l11.445,10.225Z" style="fill:#49d44c;fill-opacity:0.14902;"/><path d="M502.858,562.621l19.459,-13.633l-4.578,-5.682l-14.881,10.226l-5.722,-5.681l-5.723,4.545l11.445,10.225Z" style="fill:#49d44c;fill-opacity:0.14902;"/><path d="M502.858,639.021l19.459,-13.633l-4.578,-5.682l-14.881,10.226l-5.722,-5.681l-5.723,4.545l11.445,10.225Z" style="fill:#49d44c;fill-opacity:0.14902;"/><path d="M502.858,715.421l19.459,-13.633l-4.578,-5.682l-14.881,10.226l-5.722,-5.681l-5.723,4.545l11.445,10.225Z" style="fill:#49d44c;fill-opacity:0.14902;"/><path d="M502.858,791.821l19.459,-13.633l-4.578,-5.682l-14.881,10.226l-5.722,-5.681l-5.723,4.545l11.445,10.225Z" style="fill:#49d44c;fill-opacity:0.14902;"/><path d="M450.858,68.642l19.459,-13.633l-4.578,-5.682l-14.881,10.226l-5.722,-5.681l-5.723,4.545l11.445,10.225Z" style="fill:#49d44c;fill-opacity:0.14902;"/><path d="M450.858,145.042l19.459,-13.633l-4.578,-5.682l-14.881,10.226l-5.722,-5.681l-5.723,4.545l11.445,10.225Z" style="fill:#49d44c;fill-opacity:0.14902;"/><path d="M450.858,221.442l19.459,-13.633l-4.578,-5.682l-14.881,10.226l-5.722,-5.681l-5.723,4.545l11.445,10.225Z" style="fill:#49d44c;fill-opacity:0.14902;"/><path d="M450.858,297.842l19.459,-13.633l-4.578,-5.682l-14.881,10.226l-5.722,-5.681l-5.723,4.545l11.445,10.225Z" style="fill:#49d44c;fill-opacity:0.14902;"/><path d="M450.858,374.242l19.459,-13.633l-4.578,-5.682l-14.881,10.226l-5.722,-5.681l-5.723,4.545l11.445,10.225Z" style="fill:#49d44c;fill-opacity:0.14902;"/><path d="M450.858,450.642l19.459,-13.633l-4.578,-5.682l-14.881,10.226l-5.722,-5.681l-5.723,4.545l11.445,10.225Z" style="fill:#49d44c;fill-opacity:0.14902;"/><path d="M450.858,527.042l19.459,-13.633l-4.578,-5.682l-14.881,10.226l-5.722,-5.681l-5.723,4.545l11.445,10.225Z" style="fill:#49d44c;fill-opacity:0.14902;"/><path d="M450.858,603.442l19.459,-13.633l-4.578,-5.682l-14.881,10.226l-5.722,-5.681l-5.723,4.545l11.445,10.225Z" style="fill:#49d44c;fill-opacity:0.14902;"/><path d="M450.858,679.842l19.459,-13.633l-4.578,-5.682l-14.881,10.226l-5.722,-5.681l-5.723,4.545l11.445,10.225Z" style="fill:#49d44c;fill-opacity:0.14902;"/><path d="M450.858,756.242l19.459,-13.633l-4.578,-5.682l-14.881,10.226l-5.722,-5.681l-5.723,4.545l11.445,10.225Z" style="fill:#49d44c;fill-opacity:0.14902;"/><path d="M609.495,27.821l19.458,-13.633l-4.578,-5.682l-14.88,10.226l-5.723,-5.681l-5.723,4.545l11.446,10.225Z" style="fill:#49d44c;fill-opacity:0.14902;"/><path d="M609.495,104.221l19.458,-13.633l-4.578,-5.682l-14.88,10.226l-5.723,-5.681l-5.723,4.545l11.446,10.225Z" style="fill:#49d44c;fill-opacity:0.14902;"/><path d="M609.495,180.621l19.458,-13.633l-4.578,-5.682l-14.88,10.226l-5.723,-5.681l-5.723,4.545l11.446,10.225Z" style="fill:#49d44c;fill-opacity:0.14902;"/><path d="M609.495,257.021l19.458,-13.633l-4.578,-5.682l-14.88,10.226l-5.723,-5.681l-5.723,4.545l11.446,10.225Z" style="fill:#49d44c;fill-opacity:0.14902;"/><path d="M609.495,333.421l19.458,-13.633l-4.578,-5.682l-14.88,10.226l-5.723,-5.681l-5.723,4.545l11.446,10.225Z" style="fill:#49d44c;fill-opacity:0.14902;"/><path d="M609.495,409.821l19.458,-13.633l-4.578,-5.682l-14.88,10.226l-5.723,-5.681l-5.723,4.545l11.446,10.225Z" style="fill:#49d44c;fill-opacity:0.14902;"/><path d="M609.495,486.221l19.458,-13.633l-4.578,-5.682l-14.88,10.226l-5.723,-5.681l-5.723,4.545l11.446,10.225Z" style="fill:#49d44c;fill-opacity:0.14902;"/><path d="M609.495,562.621l19.458,-13.633l-4.578,-5.682l-14.88,10.226l-5.723,-5.681l-5.723,4.545l11.446,10.225Z" style="fill:#49d44c;fill-opacity:0.14902;"/><path d="M609.495,639.021l19.458,-13.633l-4.578,-5.682l-14.88,10.226l-5.723,-5.681l-5.723,4.545l11.446,10.225Z" style="fill:#49d44c;fill-opacity:0.14902;"/><path d="M609.495,715.421l19.458,-13.633l-4.578,-5.682l-14.88,10.226l-5.723,-5.681l-5.723,4.545l11.446,10.225Z" style="fill:#49d44c;fill-opacity:0.14902;"/><path d="M609.495,791.821l19.458,-13.633l-4.578,-5.682l-14.88,10.226l-5.723,-5.681l-5.723,4.545l11.446,10.225Z" style="fill:#49d44c;fill-opacity:0.14902;"/><path d="M557.495,68.642l19.458,-13.633l-4.578,-5.682l-14.88,10.226l-5.723,-5.681l-5.723,4.545l11.446,10.225Z" style="fill:#49d44c;fill-opacity:0.14902;"/><path d="M557.495,145.042l19.458,-13.633l-4.578,-5.682l-14.88,10.226l-5.723,-5.681l-5.723,4.545l11.446,10.225Z" style="fill:#49d44c;fill-opacity:0.14902;"/><path d="M557.495,221.442l19.458,-13.633l-4.578,-5.682l-14.88,10.226l-5.723,-5.681l-5.723,4.545l11.446,10.225Z" style="fill:#49d44c;fill-opacity:0.14902;"/><path d="M557.495,297.842l19.458,-13.633l-4.578,-5.682l-14.88,10.226l-5.723,-5.681l-5.723,4.545l11.446,10.225Z" style="fill:#49d44c;fill-opacity:0.14902;"/><path d="M557.495,374.242l19.458,-13.633l-4.578,-5.682l-14.88,10.226l-5.723,-5.681l-5.723,4.545l11.446,10.225Z" style="fill:#49d44c;fill-opacity:0.14902;"/><path d="M557.495,450.642l19.458,-13.633l-4.578,-5.682l-14.88,10.226l-5.723,-5.681l-5.723,4.545l11.446,10.225Z" style="fill:#49d44c;fill-opacity:0.14902;"/><path d="M557.495,527.042l19.458,-13.633l-4.578,-5.682l-14.88,10.226l-5.723,-5.681l-5.723,4.545l11.446,10.225Z" style="fill:#49d44c;fill-opacity:0.14902;"/><path d="M557.495,603.442l19.458,-13.633l-4.578,-5.682l-14.88,10.226l-5.723,-5.681l-5.723,4.545l11.446,10.225Z" style="fill:#49d44c;fill-opacity:0.14902;"/><path d="M557.495,679.842l19.458,-13.633l-4.578,-5.682l-14.88,10.226l-5.723,-5.681l-5.723,4.545l11.446,10.225Z" style="fill:#49d44c;fill-opacity:0.14902;"/><path d="M557.495,756.242l19.458,-13.633l-4.578,-5.682l-14.88,10.226l-5.723,-5.681l-5.723,4.545l11.446,10.225Z" style="fill:#49d44c;fill-opacity:0.14902;"/><path d="M1249.31,27.821l19.458,-13.633l-4.577,-5.682l-14.881,10.226l-5.723,-5.681l-5.723,4.545l11.446,10.225Z" style="fill:#49d44c;fill-opacity:0.14902;"/><path d="M1249.31,104.221l19.458,-13.633l-4.577,-5.682l-14.881,10.226l-5.723,-5.681l-5.723,4.545l11.446,10.225Z" style="fill:#49d44c;fill-opacity:0.14902;"/><path d="M1249.31,180.621l19.458,-13.633l-4.577,-5.682l-14.881,10.226l-5.723,-5.681l-5.723,4.545l11.446,10.225Z" style="fill:#49d44c;fill-opacity:0.14902;"/><path d="M1249.31,257.021l19.458,-13.633l-4.577,-5.682l-14.881,10.226l-5.723,-5.681l-5.723,4.545l11.446,10.225Z" style="fill:#49d44c;fill-opacity:0.14902;"/><path d="M1249.31,333.421l19.458,-13.633l-4.577,-5.682l-14.881,10.226l-5.723,-5.681l-5.723,4.545l11.446,10.225Z" style="fill:#49d44c;fill-opacity:0.14902;"/><path d="M1249.31,409.821l19.458,-13.633l-4.577,-5.682l-14.881,10.226l-5.723,-5.681l-5.723,4.545l11.446,10.225Z" style="fill:#49d44c;fill-opacity:0.14902;"/><path d="M1249.31,486.221l19.458,-13.633l-4.577,-5.682l-14.881,10.226l-5.723,-5.681l-5.723,4.545l11.446,10.225Z" style="fill:#49d44c;fill-opacity:0.14902;"/><path d="M1249.31,562.621l19.458,-13.633l-4.577,-5.682l-14.881,10.226l-5.723,-5.681l-5.723,4.545l11.446,10.225Z" style="fill:#49d44c;fill-opacity:0.14902;"/><path d="M1249.31,639.021l19.458,-13.633l-4.577,-5.682l-14.881,10.226l-5.723,-5.681l-5.723,4.545l11.446,10.225Z" style="fill:#49d44c;fill-opacity:0.14902;"/><path d="M1249.31,715.421l19.458,-13.633l-4.577,-5.682l-14.881,10.226l-5.723,-5.681l-5.723,4.545l11.446,10.225Z" style="fill:#49d44c;fill-opacity:0.14902;"/><path d="M1249.31,791.821l19.458,-13.633l-4.577,-5.682l-14.881,10.226l-5.723,-5.681l-5.723,4.545l11.446,10.225Z" style="fill:#49d44c;fill-opacity:0.14902;"/><path d="M1197.31,68.642l19.458,-13.633l-4.577,-5.682l-14.881,10.226l-5.723,-5.681l-5.723,4.545l11.446,10.225Z" style="fill:#49d44c;fill-opacity:0.14902;"/><path d="M1197.31,145.042l19.458,-13.633l-4.577,-5.682l-14.881,10.226l-5.723,-5.681l-5.723,4.545l11.446,10.225Z" style="fill:#49d44c;fill-opacity:0.14902;"/><path d="M1197.31,221.442l19.458,-13.633l-4.577,-5.682l-14.881,10.226l-5.723,-5.681l-5.723,4.545l11.446,10.225Z" style="fill:#49d44c;fill-opacity:0.14902;"/><path d="M1197.31,297.842l19.458,-13.633l-4.577,-5.682l-14.881,10.226l-5.723,-5.681l-5.723,4.545l11.446,10.225Z" style="fill:#49d44c;fill-opacity:0.14902;"/><path d="M1197.31,374.242l19.458,-13.633l-4.577,-5.682l-14.881,10.226l-5.723,-5.681l-5.723,4.545l11.446,10.225Z" style="fill:#49d44c;fill-opacity:0.14902;"/><path d="M1197.31,450.642l19.458,-13.633l-4.577,-5.682l-14.881,10.226l-5.723,-5.681l-5.723,4.545l11.446,10.225Z" style="fill:#49d44c;fill-opacity:0.14902;"/><path d="M1197.31,527.042l19.458,-13.633l-4.577,-5.682l-14.881,10.226l-5.723,-5.681l-5.723,4.545l11.446,10.225Z" style="fill:#49d44c;fill-opacity:0.14902;"/><path d="M1197.31,603.442l19.458,-13.633l-4.577,-5.682l-14.881,10.226l-5.723,-5.681l-5.723,4.545l11.446,10.225Z" style="fill:#49d44c;fill-opacity:0.14902;"/><path d="M1197.31,679.842l19.458,-13.633l-4.577,-5.682l-14.881,10.226l-5.723,-5.681l-5.723,4.545l11.446,10.225Z" style="fill:#49d44c;fill-opacity:0.14902;"/><path d="M1197.31,756.242l19.458,-13.633l-4.577,-5.682l-14.881,10.226l-5.723,-5.681l-5.723,4.545l11.446,10.225Z" style="fill:#49d44c;fill-opacity:0.14902;"/><path d="M822.767,27.821l19.459,-13.633l-4.578,-5.682l-14.881,10.226l-5.722,-5.681l-5.723,4.545l11.445,10.225Z" style="fill:#49d44c;fill-opacity:0.14902;"/><path d="M822.767,104.221l19.459,-13.633l-4.578,-5.682l-14.881,10.226l-5.722,-5.681l-5.723,4.545l11.445,10.225Z" style="fill:#49d44c;fill-opacity:0.14902;"/><path d="M822.767,180.621l19.459,-13.633l-4.578,-5.682l-14.881,10.226l-5.722,-5.681l-5.723,4.545l11.445,10.225Z" style="fill:#49d44c;fill-opacity:0.14902;"/><path d="M822.767,257.021l19.459,-13.633l-4.578,-5.682l-14.881,10.226l-5.722,-5.681l-5.723,4.545l11.445,10.225Z" style="fill:#49d44c;fill-opacity:0.14902;"/><path d="M822.767,333.421l19.459,-13.633l-4.578,-5.682l-14.881,10.226l-5.722,-5.681l-5.723,4.545l11.445,10.225Z" style="fill:#49d44c;fill-opacity:0.14902;"/><path d="M822.767,409.821l19.459,-13.633l-4.578,-5.682l-14.881,10.226l-5.722,-5.681l-5.723,4.545l11.445,10.225Z" style="fill:#49d44c;fill-opacity:0.14902;"/><path d="M822.767,486.221l19.459,-13.633l-4.578,-5.682l-14.881,10.226l-5.722,-5.681l-5.723,4.545l11.445,10.225Z" style="fill:#49d44c;fill-opacity:0.14902;"/><path d="M822.767,562.621l19.459,-13.633l-4.578,-5.682l-14.881,10.226l-5.722,-5.681l-5.723,4.545l11.445,10.225Z" style="fill:#49d44c;fill-opacity:0.14902;"/><path d="M822.767,639.021l19.459,-13.633l-4.578,-5.682l-14.881,10.226l-5.722,-5.681l-5.723,4.545l11.445,10.225Z" style="fill:#49d44c;fill-opacity:0.14902;"/><path d="M822.767,715.421l19.459,-13.633l-4.578,-5.682l-14.881,10.226l-5.722,-5.681l-5.723,4.545l11.445,10.225Z" style="fill:#49d44c;fill-opacity:0.14902;"/><path d="M822.767,791.821l19.459,-13.633l-4.578,-5.682l-14.881,10.226l-5.722,-5.681l-5.723,4.545l11.445,10.225Z" style="fill:#49d44c;fill-opacity:0.14902;"/><path d="M770.767,68.642l19.459,-13.633l-4.578,-5.682l-14.881,10.226l-5.722,-5.681l-5.723,4.545l11.445,10.225Z" style="fill:#49d44c;fill-opacity:0.14902;"/><path d="M770.767,145.042l19.459,-13.633l-4.578,-5.682l-14.881,10.226l-5.722,-5.681l-5.723,4.545l11.445,10.225Z" style="fill:#49d44c;fill-opacity:0.14902;"/><path d="M770.767,221.442l19.459,-13.633l-4.578,-5.682l-14.881,10.226l-5.722,-5.681l-5.723,4.545l11.445,10.225Z" style="fill:#49d44c;fill-opacity:0.14902;"/><path d="M770.767,297.842l19.459,-13.633l-4.578,-5.682l-14.881,10.226l-5.722,-5.681l-5.723,4.545l11.445,10.225Z" style="fill:#49d44c;fill-opacity:0.14902;"/><path d="M770.767,374.242l19.459,-13.633l-4.578,-5.682l-14.881,10.226l-5.722,-5.681l-5.723,4.545l11.445,10.225Z" style="fill:#49d44c;fill-opacity:0.14902;"/><path d="M770.767,450.642l19.459,-13.633l-4.578,-5.682l-14.881,10.226l-5.722,-5.681l-5.723,4.545l11.445,10.225Z" style="fill:#49d44c;fill-opacity:0.14902;"/><path d="M770.767,527.042l19.459,-13.633l-4.578,-5.682l-14.881,10.226l-5.722,-5.681l-5.723,4.545l11.445,10.225Z" style="fill:#49d44c;fill-opacity:0.14902;"/><path d="M770.767,603.442l19.459,-13.633l-4.578,-5.682l-14.881,10.226l-5.722,-5.681l-5.723,4.545l11.445,10.225Z" style="fill:#49d44c;fill-opacity:0.14902;"/><path d="M770.767,679.842l19.459,-13.633l-4.578,-5.682l-14.881,10.226l-5.722,-5.681l-5.723,4.545l11.445,10.225Z" style="fill:#49d44c;fill-opacity:0.14902;"/><path d="M770.767,756.242l19.459,-13.633l-4.578,-5.682l-14.881,10.226l-5.722,-5.681l-5.723,4.545l11.445,10.225Z" style="fill:#49d44c;fill-opacity:0.14902;"/><path d="M929.404,27.821l19.458,-13.633l-4.577,-5.682l-14.881,10.226l-5.723,-5.681l-5.723,4.545l11.446,10.225Z" style="fill:#49d44c;fill-opacity:0.14902;"/><path d="M929.404,104.221l19.458,-13.633l-4.577,-5.682l-14.881,10.226l-5.723,-5.681l-5.723,4.545l11.446,10.225Z" style="fill:#49d44c;fill-opacity:0.14902;"/><path d="M929.404,180.621l19.458,-13.633l-4.577,-5.682l-14.881,10.226l-5.723,-5.681l-5.723,4.545l11.446,10.225Z" style="fill:#49d44c;fill-opacity:0.14902;"/><path d="M929.404,257.021l19.458,-13.633l-4.577,-5.682l-14.881,10.226l-5.723,-5.681l-5.723,4.545l11.446,10.225Z" style="fill:#49d44c;fill-opacity:0.14902;"/><path d="M929.404,333.421l19.458,-13.633l-4.577,-5.682l-14.881,10.226l-5.723,-5.681l-5.723,4.545l11.446,10.225Z" style="fill:#49d44c;fill-opacity:0.14902;"/><path d="M929.404,409.821l19.458,-13.633l-4.577,-5.682l-14.881,10.226l-5.723,-5.681l-5.723,4.545l11.446,10.225Z" style="fill:#49d44c;fill-opacity:0.14902;"/><path d="M929.404,486.221l19.458,-13.633l-4.577,-5.682l-14.881,10.226l-5.723,-5.681l-5.723,4.545l11.446,10.225Z" style="fill:#49d44c;fill-opacity:0.14902;"/><path d="M929.404,562.621l19.458,-13.633l-4.577,-5.682l-14.881,10.226l-5.723,-5.681l-5.723,4.545l11.446,10.225Z" style="fill:#49d44c;fill-opacity:0.14902;"/><path d="M929.404,639.021l19.458,-13.633l-4.577,-5.682l-14.881,10.226l-5.723,-5.681l-5.723,4.545l11.446,10.225Z" style="fill:#49d44c;fill-opacity:0.14902;"/><path d="M929.404,715.421l19.458,-13.633l-4.577,-5.682l-14.881,10.226l-5.723,-5.681l-5.723,4.545l11.446,10.225Z" style="fill:#49d44c;fill-opacity:0.14902;"/><path d="M929.404,791.821l19.458,-13.633l-4.577,-5.682l-14.881,10.226l-5.723,-5.681l-5.723,4.545l11.446,10.225Z" style="fill:#49d44c;fill-opacity:0.14902;"/><path d="M877.404,68.642l19.458,-13.633l-4.577,-5.682l-14.881,10.226l-5.723,-5.681l-5.723,4.545l11.446,10.225Z" style="fill:#49d44c;fill-opacity:0.14902;"/><path d="M877.404,145.042l19.458,-13.633l-4.577,-5.682l-14.881,10.226l-5.723,-5.681l-5.723,4.545l11.446,10.225Z" style="fill:#49d44c;fill-opacity:0.14902;"/><path d="M877.404,221.442l19.458,-13.633l-4.577,-5.682l-14.881,10.226l-5.723,-5.681l-5.723,4.545l11.446,10.225Z" style="fill:#49d44c;fill-opacity:0.14902;"/><path d="M877.404,297.842l19.458,-13.633l-4.577,-5.682l-14.881,10.226l-5.723,-5.681l-5.723,4.545l11.446,10.225Z" style="fill:#49d44c;fill-opacity:0.14902;"/><path d="M877.404,374.242l19.458,-13.633l-4.577,-5.682l-14.881,10.226l-5.723,-5.681l-5.723,4.545l11.446,10.225Z" style="fill:#49d44c;fill-opacity:0.14902;"/><path d="M877.404,450.642l19.458,-13.633l-4.577,-5.682l-14.881,10.226l-5.723,-5.681l-5.723,4.545l11.446,10.225Z" style="fill:#49d44c;fill-opacity:0.14902;"/><path d="M877.404,527.042l19.458,-13.633l-4.577,-5.682l-14.881,10.226l-5.723,-5.681l-5.723,4.545l11.446,10.225Z" style="fill:#49d44c;fill-opacity:0.14902;"/><path d="M877.404,603.442l19.458,-13.633l-4.577,-5.682l-14.881,10.226l-5.723,-5.681l-5.723,4.545l11.446,10.225Z" style="fill:#49d44c;fill-opacity:0.14902;"/><path d="M877.404,679.842l19.458,-13.633l-4.577,-5.682l-14.881,10.226l-5.723,-5.681l-5.723,4.545l11.446,10.225Z" style="fill:#49d44c;fill-opacity:0.14902;"/><path d="M877.404,756.242l19.458,-13.633l-4.577,-5.682l-14.881,10.226l-5.723,-5.681l-5.723,4.545l11.446,10.225Z" style="fill:#49d44c;fill-opacity:0.14902;"/><path d="M1036.04,27.821l19.458,-13.633l-4.577,-5.682l-14.881,10.226l-5.723,-5.681l-5.722,4.545l11.445,10.225Z" style="fill:#49d44c;fill-opacity:0.14902;"/><path d="M1036.04,104.221l19.458,-13.633l-4.577,-5.682l-14.881,10.226l-5.723,-5.681l-5.722,4.545l11.445,10.225Z" style="fill:#49d44c;fill-opacity:0.14902;"/><path d="M1036.04,180.621l19.458,-13.633l-4.577,-5.682l-14.881,10.226l-5.723,-5.681l-5.722,4.545l11.445,10.225Z" style="fill:#49d44c;fill-opacity:0.14902;"/><path d="M1036.04,257.021l19.458,-13.633l-4.577,-5.682l-14.881,10.226l-5.723,-5.681l-5.722,4.545l11.445,10.225Z" style="fill:#49d44c;fill-opacity:0.14902;"/><path d="M1036.04,333.421l19.458,-13.633l-4.577,-5.682l-14.881,10.226l-5.723,-5.681l-5.722,4.545l11.445,10.225Z" style="fill:#49d44c;fill-opacity:0.14902;"/><path d="M1036.04,409.821l19.458,-13.633l-4.577,-5.682l-14.881,10.226l-5.723,-5.681l-5.722,4.545l11.445,10.225Z" style="fill:#49d44c;fill-opacity:0.14902;"/><path d="M1036.04,486.221l19.458,-13.633l-4.577,-5.682l-14.881,10.226l-5.723,-5.681l-5.722,4.545l11.445,10.225Z" style="fill:#49d44c;fill-opacity:0.14902;"/><path d="M1036.04,562.621l19.458,-13.633l-4.577,-5.682l-14.881,10.226l-5.723,-5.681l-5.722,4.545l11.445,10.225Z" style="fill:#49d44c;fill-opacity:0.14902;"/><path d="M1036.04,639.021l19.458,-13.633l-4.577,-5.682l-14.881,10.226l-5.723,-5.681l-5.722,4.545l11.445,10.225Z" style="fill:#49d44c;fill-opacity:0.14902;"/><path d="M1036.04,715.421l19.458,-13.633l-4.577,-5.682l-14.881,10.226l-5.723,-5.681l-5.722,4.545l11.445,10.225Z" style="fill:#49d44c;fill-opacity:0.14902;"/><path d="M1036.04,791.821l19.458,-13.633l-4.577,-5.682l-14.881,10.226l-5.723,-5.681l-5.722,4.545l11.445,10.225Z" style="fill:#49d44c;fill-opacity:0.14902;"/><path d="M984.04,68.642l19.458,-13.633l-4.577,-5.682l-14.881,10.226l-5.723,-5.681l-5.722,4.545l11.445,10.225Z" style="fill:#49d44c;fill-opacity:0.14902;"/><path d="M984.04,145.042l19.458,-13.633l-4.577,-5.682l-14.881,10.226l-5.723,-5.681l-5.722,4.545l11.445,10.225Z" style="fill:#49d44c;fill-opacity:0.14902;"/><path d="M984.04,221.442l19.458,-13.633l-4.577,-5.682l-14.881,10.226l-5.723,-5.681l-5.722,4.545l11.445,10.225Z" style="fill:#49d44c;fill-opacity:0.14902;"/><path d="M984.04,297.842l19.458,-13.633l-4.577,-5.682l-14.881,10.226l-5.723,-5.681l-5.722,4.545l11.445,10.225Z" style="fill:#49d44c;fill-opacity:0.14902;"/><path d="M984.04,374.242l19.458,-13.633l-4.577,-5.682l-14.881,10.226l-5.723,-5.681l-5.722,4.545l11.445,10.225Z" style="fill:#49d44c;fill-opacity:0.14902;"/><path d="M984.04,450.642l19.458,-13.633l-4.577,-5.682l-14.881,10.226l-5.723,-5.681l-5.722,4.545l11.445,10.225Z" style="fill:#49d44c;fill-opacity:0.14902;"/><path d="M984.04,527.042l19.458,-13.633l-4.577,-5.682l-14.881,10.226l-5.723,-5.681l-5.722,4.545l11.445,10.225Z" style="fill:#49d44c;fill-opacity:0.14902;"/><path d="M984.04,603.442l19.458,-13.633l-4.577,-5.682l-14.881,10.226l-5.723,-5.681l-5.722,4.545l11.445,10.225Z" style="fill:#49d44c;fill-opacity:0.14902;"/><path d="M984.04,679.842l19.458,-13.633l-4.577,-5.682l-14.881,10.226l-5.723,-5.681l-5.722,4.545l11.445,10.225Z" style="fill:#49d44c;fill-opacity:0.14902;"/><path d="M984.04,756.242l19.458,-13.633l-4.577,-5.682l-14.881,10.226l-5.723,-5.681l-5.722,4.545l11.445,10.225Z" style="fill:#49d44c;fill-opacity:0.14902;"/><path d="M1142.68,27.821l19.458,-13.633l-4.578,-5.682l-14.88,10.226l-5.723,-5.681l-5.723,4.545l11.446,10.225Z" style="fill:#49d44c;fill-opacity:0.14902;"/><path d="M1142.68,104.221l19.458,-13.633l-4.578,-5.682l-14.88,10.226l-5.723,-5.681l-5.723,4.545l11.446,10.225Z" style="fill:#49d44c;fill-opacity:0.14902;"/><path d="M1142.68,180.621l19.458,-13.633l-4.578,-5.682l-14.88,10.226l-5.723,-5.681l-5.723,4.545l11.446,10.225Z" style="fill:#49d44c;fill-opacity:0.14902;"/><path d="M1142.68,257.021l19.458,-13.633l-4.578,-5.682l-14.88,10.226l-5.723,-5.681l-5.723,4.545l11.446,10.225Z" style="fill:#49d44c;fill-opacity:0.14902;"/><path d="M1142.68,333.421l19.458,-13.633l-4.578,-5.682l-14.88,10.226l-5.723,-5.681l-5.723,4.545l11.446,10.225Z" style="fill:#49d44c;fill-opacity:0.14902;"/><path d="M1142.68,409.821l19.458,-13.633l-4.578,-5.682l-14.88,10.226l-5.723,-5.681l-5.723,4.545l11.446,10.225Z" style="fill:#49d44c;fill-opacity:0.14902;"/><path d="M1142.68,486.221l19.458,-13.633l-4.578,-5.682l-14.88,10.226l-5.723,-5.681l-5.723,4.545l11.446,10.225Z" style="fill:#49d44c;fill-opacity:0.14902;"/><path d="M1142.68,562.621l19.458,-13.633l-4.578,-5.682l-14.88,10.226l-5.723,-5.681l-5.723,4.545l11.446,10.225Z" style="fill:#49d44c;fill-opacity:0.14902;"/><path d="M1142.68,639.021l19.458,-13.633l-4.578,-5.682l-14.88,10.226l-5.723,-5.681l-5.723,4.545l11.446,10.225Z" style="fill:#49d44c;fill-opacity:0.14902;"/><path d="M1142.68,715.421l19.458,-13.633l-4.578,-5.682l-14.88,10.226l-5.723,-5.681l-5.723,4.545l11.446,10.225Z" style="fill:#49d44c;fill-opacity:0.14902;"/><path d="M1142.68,791.821l19.458,-13.633l-4.578,-5.682l-14.88,10.226l-5.723,-5.681l-5.723,4.545l11.446,10.225Z" style="fill:#49d44c;fill-opacity:0.14902;"/><path d="M1090.68,68.642l19.458,-13.633l-4.578,-5.682l-14.88,10.226l-5.723,-5.681l-5.723,4.545l11.446,10.225Z" style="fill:#49d44c;fill-opacity:0.14902;"/><path d="M1090.68,145.042l19.458,-13.633l-4.578,-5.682l-14.88,10.226l-5.723,-5.681l-5.723,4.545l11.446,10.225Z" style="fill:#49d44c;fill-opacity:0.14902;"/><path d="M1090.68,221.442l19.458,-13.633l-4.578,-5.682l-14.88,10.226l-5.723,-5.681l-5.723,4.545l11.446,10.225Z" style="fill:#49d44c;fill-opacity:0.14902;"/><path d="M1090.68,297.842l19.458,-13.633l-4.578,-5.682l-14.88,10.226l-5.723,-5.681l-5.723,4.545l11.446,10.225Z" style="fill:#49d44c;fill-opacity:0.14902;"/><path d="M1090.68,374.242l19.458,-13.633l-4.578,-5.682l-14.88,10.226l-5.723,-5.681l-5.723,4.545l11.446,10.225Z" style="fill:#49d44c;fill-opacity:0.14902;"/><path d="M1090.68,450.642l19.458,-13.633l-4.578,-5.682l-14.88,10.226l-5.723,-5.681l-5.723,4.545l11.446,10.225Z" style="fill:#49d44c;fill-opacity:0.14902;"/><path d="M1090.68,527.042l19.458,-13.633l-4.578,-5.682l-14.88,10.226l-5.723,-5.681l-5.723,4.545l11.446,10.225Z" style="fill:#49d44c;fill-opacity:0.14902;"/><path d="M1090.68,603.442l19.458,-13.633l-4.578,-5.682l-14.88,10.226l-5.723,-5.681l-5.723,4.545l11.446,10.225Z" style="fill:#49d44c;fill-opacity:0.14902;"/><path d="M1090.68,679.842l19.458,-13.633l-4.578,-5.682l-14.88,10.226l-5.723,-5.681l-5.723,4.545l11.446,10.225Z" style="fill:#49d44c;fill-opacity:0.14902;"/><path d="M1090.68,756.242l19.458,-13.633l-4.578,-5.682l-14.88,10.226l-5.723,-5.681l-5.723,4.545l11.446,10.225Z" style="fill:#49d44c;fill-opacity:0.14902;"/><path d="M76.313,25.479l19.458,-13.634l-4.577,-5.681l-14.881,10.225l-5.723,-5.681l-5.723,4.545l11.446,10.226Z" style="fill:#49d44c;fill-opacity:0.14902;"/><path d="M76.313,101.879l19.458,-13.634l-4.577,-5.681l-14.881,10.225l-5.723,-5.681l-5.723,4.545l11.446,10.226Z" style="fill:#49d44c;fill-opacity:0.14902;"/><path d="M76.313,178.279l19.458,-13.634l-4.577,-5.681l-14.881,10.225l-5.723,-5.681l-5.723,4.545l11.446,10.226Z" style="fill:#49d44c;fill-opacity:0.14902;"/><path d="M76.313,254.679l19.458,-13.634l-4.577,-5.681l-14.881,10.225l-5.723,-5.681l-5.723,4.545l11.446,10.226Z" style="fill:#49d44c;fill-opacity:0.14902;"/><path d="M76.313,331.079l19.458,-13.634l-4.577,-5.681l-14.881,10.225l-5.723,-5.681l-5.723,4.545l11.446,10.226Z" style="fill:#49d44c;fill-opacity:0.14902;"/><path d="M76.313,407.479l19.458,-13.634l-4.577,-5.681l-14.881,10.225l-5.723,-5.681l-5.723,4.545l11.446,10.226Z" style="fill:#49d44c;fill-opacity:0.14902;"/><path d="M76.313,483.879l19.458,-13.634l-4.577,-5.681l-14.881,10.225l-5.723,-5.681l-5.723,4.545l11.446,10.226Z" style="fill:#49d44c;fill-opacity:0.14902;"/><path d="M76.313,560.279l19.458,-13.634l-4.577,-5.681l-14.881,10.225l-5.723,-5.681l-5.723,4.545l11.446,10.226Z" style="fill:#49d44c;fill-opacity:0.14902;"/><path d="M76.313,636.679l19.458,-13.634l-4.577,-5.681l-14.881,10.225l-5.723,-5.681l-5.723,4.545l11.446,10.226Z" style="fill:#49d44c;fill-opacity:0.14902;"/><path d="M76.313,713.079l19.458,-13.634l-4.577,-5.681l-14.881,10.225l-5.723,-5.681l-5.723,4.545l11.446,10.226Z" style="fill:#49d44c;fill-opacity:0.14902;"/><path d="M76.313,789.479l19.458,-13.634l-4.577,-5.681l-14.881,10.225l-5.723,-5.681l-5.723,4.545l11.446,10.226Z" style="fill:#49d44c;fill-opacity:0.14902;"/><path d="M24.313,66.3l19.458,-13.634l-4.577,-5.681l-14.881,10.225l-5.723,-5.68l-5.723,4.544l11.446,10.226Z" style="fill:#49d44c;fill-opacity:0.14902;"/><path d="M24.313,142.7l19.458,-13.634l-4.577,-5.681l-14.881,10.225l-5.723,-5.68l-5.723,4.544l11.446,10.226Z" style="fill:#49d44c;fill-opacity:0.14902;"/><path d="M24.313,219.1l19.458,-13.634l-4.577,-5.681l-14.881,10.225l-5.723,-5.68l-5.723,4.544l11.446,10.226Z" style="fill:#49d44c;fill-opacity:0.14902;"/><path d="M24.313,295.5l19.458,-13.634l-4.577,-5.681l-14.881,10.225l-5.723,-5.68l-5.723,4.544l11.446,10.226Z" style="fill:#49d44c;fill-opacity:0.14902;"/><path d="M24.313,371.9l19.458,-13.634l-4.577,-5.681l-14.881,10.225l-5.723,-5.68l-5.723,4.544l11.446,10.226Z" style="fill:#49d44c;fill-opacity:0.14902;"/><path d="M24.313,448.3l19.458,-13.634l-4.577,-5.681l-14.881,10.225l-5.723,-5.68l-5.723,4.544l11.446,10.226Z" style="fill:#49d44c;fill-opacity:0.14902;"/><path d="M24.313,524.7l19.458,-13.634l-4.577,-5.681l-14.881,10.225l-5.723,-5.68l-5.723,4.544l11.446,10.226Z" style="fill:#49d44c;fill-opacity:0.14902;"/><path d="M24.313,601.1l19.458,-13.634l-4.577,-5.681l-14.881,10.225l-5.723,-5.68l-5.723,4.544l11.446,10.226Z" style="fill:#49d44c;fill-opacity:0.14902;"/><path d="M24.313,677.5l19.458,-13.634l-4.577,-5.681l-14.881,10.225l-5.723,-5.68l-5.723,4.544l11.446,10.226Z" style="fill:#49d44c;fill-opacity:0.14902;"/><path d="M24.313,753.9l19.458,-13.634l-4.577,-5.681l-14.881,10.225l-5.723,-5.68l-5.723,4.544l11.446,10.226Z" style="fill:#49d44c;fill-opacity:0.14902;"/></g></g><rect id="dark mask" x="0" y="0.164" width="1280" height="800" style="fill:url(#_Linear2);"/><defs><linearGradient id="_Linear2" x1="0" y1="0" x2="1" y2="0" gradientUnits="userSpaceOnUse" gradientTransform="matrix(5.5344e-14,903.836,-903.836,5.5344e-14,650.794,0.163664)"><stop offset="0%" style="stop-color:#000;stop-opacity:0.25098"/><stop offset="55%" style="stop-color:#101010;stop-opacity:0.25098"/><stop offset="100%" style="stop-color:#4d4d4d;stop-opacity:0.25098"/></linearGradient></defs></svg>