<?xml version="1.0" standalone="no"?><!DOCTYPE svg PUBLIC "-//W3C//DTD SVG 1.1//EN" "http://www.w3.org/Graphics/SVG/1.1/DTD/svg11.dtd"><svg width="100%" height="100%" viewBox="0 0 168 168" version="1.1" xmlns="http://www.w3.org/2000/svg" xmlns:xlink="http://www.w3.org/1999/xlink" xml:space="preserve" style="fill-rule:evenodd;clip-rule:evenodd;stroke-linejoin:round;stroke-miterlimit:1.41421;"><g id="bandes"><clipPath id="_clip1"><path d="M168.082,21.333c0,-11.819 -9.596,-21.415 -21.415,-21.415l-125.334,0c-11.819,0 -21.415,9.596 -21.415,21.415l0,125.334c0,11.819 9.596,21.415 21.415,21.415l125.334,0c11.819,0 21.415,-9.596 21.415,-21.415l0,-125.334Z"/></clipPath><g clip-path="url(#_clip1)"><path d="M51.105,168.082l-18.37,0l-0.166,-168.164l18.37,0l0.166,168.164ZM85.37,168.082l-18.37,0l-0.166,-168.164l18.37,0l0.166,168.164ZM119.635,168.082l-18.37,0l-0.165,-168.164l18.37,0l0.165,168.164ZM146.667,-0.082c2.476,0 4.856,0.422 7.069,1.197l0.163,165.712c-2.26,0.812 -4.695,1.255 -7.232,1.255l-11.136,0l-0.166,-168.164l11.302,0ZM16.674,0.428l0.165,167.18c-9.665,-2.067 -16.921,-10.663 -16.921,-20.941l0,-125.334c0,-10.219 7.174,-18.776 16.756,-20.905l0,0Z" style="fill:#4c4c4c;"/><path d="M21.333,-0.082l12.69,0l0.166,168.164l-12.856,0c-1.906,0 -3.755,-0.25 -5.515,-0.719l-0.164,-166.682c1.809,-0.497 3.713,-0.763 5.679,-0.763l0,0ZM68.454,168.082l-18.37,0l-0.166,-168.164l18.37,0l0.166,168.164ZM102.719,168.082l-18.37,0l-0.165,-168.164l18.37,0l0.165,168.164ZM136.985,168.082l-18.37,0l-0.166,-168.164l18.37,0l0.166,168.164ZM152.715,0.786c8.878,2.613 15.367,10.828 15.367,20.547l0,125.334c0,9.659 -6.409,17.833 -15.203,20.498l-0.164,-166.379l0,0Z" style="fill:#4e4e4e;"/></g></g><path d="M149.768,77.911l-59.681,-59.677c-3.436,-3.438 -9.01,-3.438 -12.449,0l-12.392,12.394l15.719,15.72c3.654,-1.235 7.843,-0.406 10.754,2.506c2.929,2.931 3.75,7.156 2.484,10.822l15.153,15.152c3.667,-1.265 7.895,-0.447 10.822,2.485c4.091,4.091 4.091,10.72 0,14.814c-4.094,4.092 -10.722,4.092 -14.818,0c-3.076,-3.08 -3.838,-7.602 -2.277,-11.392l-14.132,-14.131l0,37.185c0.996,0.494 1.938,1.152 2.768,1.982c4.091,4.091 4.091,10.719 0,14.815c-4.091,4.089 -10.724,4.089 -14.812,0c-4.091,-4.097 -4.091,-10.726 0,-14.815c1.012,-1.01 2.182,-1.775 3.432,-2.287l0,-37.531c-1.25,-0.512 -2.417,-1.269 -3.432,-2.287c-3.098,-3.097 -3.844,-7.646 -2.255,-11.451l-15.496,-15.499l-40.924,40.919c-3.438,3.44 -3.438,9.014 0,12.452l59.684,59.679c3.436,3.438 9.009,3.438 12.449,0l59.403,-59.402c3.438,-3.438 3.438,-9.015 0,-12.453l0,0Z" style="fill:#000;fill-opacity:0.376471;fill-rule:nonzero;"/></svg>