<?xml version="1.0" standalone="no"?><!DOCTYPE svg PUBLIC "-//W3C//DTD SVG 1.1//EN" "http://www.w3.org/Graphics/SVG/1.1/DTD/svg11.dtd"><svg width="100%" height="100%" viewBox="0 0 512 512" version="1.1" xmlns="http://www.w3.org/2000/svg" xmlns:xlink="http://www.w3.org/1999/xlink" xml:space="preserve" style="fill-rule:evenodd;clip-rule:evenodd;stroke-linejoin:round;stroke-miterlimit:1.41421;"><path d="M509.627,212.589c3.219,-3.25 3.219,-9.062 -0.344,-12.625l-54.673,-54.563c-3.469,-3.469 -9.469,-3.438 -12.891,0l-7.844,7.781l-101.156,-101.001c-0.734,-0.703 -1.562,-1.25 -2.469,-1.688c-20.485,-9.406 -40.423,-13.781 -62.767,-13.781c-28.422,0 -57.938,7.312 -88.188,15.438c-1.797,0.438 -3.297,1.281 -4.5,2.469c-1.703,1.719 -2.656,4 -2.641,6.438c0,2.438 0.938,4.703 2.641,6.406l89.438,89.313l-84.907,84.86l-4.062,-3.984c-1.734,-1.719 -4.031,-2.656 -6.453,-2.656c-2.422,0 -4.719,0.938 -6.438,2.656l-146.705,146.659c-20.891,20.922 -20.891,54.906 0,75.812c20.25,20.234 55.547,20.203 75.798,0l146.674,-146.721c3.531,-3.562 3.531,-9.312 0.016,-12.844l-1.656,-1.688l0,-4.719l1.672,-1.719l80.923,-80.922l28.172,28.125l-8.469,8.453c-2.922,3.344 -2.766,8.812 0.641,12.188l54.766,54.625c3.453,3.469 9.423,3.438 12.876,0.031c102.249,-102.124 102.296,-102.155 102.546,-102.343ZM78.575,447.217c-6.656,6.688 -15.563,10.359 -25.016,10.359c-9.453,0 -18.359,-3.672 -25.016,-10.359c-6.672,-6.656 -10.359,-15.531 -10.359,-25c0,-9.438 3.688,-18.328 10.359,-25l140.268,-140.284l50.047,50.032l-140.283,140.252ZM221.233,283.621l-29.062,-29.079l84.938,-84.954l29.094,29.063l-84.97,84.97ZM400.626,295.621l-41.829,-41.766l14.25,-14.219l-40.672,-40.547l0.078,-0.094l-55.235,-55.251l-0.141,0.125l-78.25,-78.126l9.969,-2.375c20.454,-4.891 35.735,-7.406 49.563,-8.203c22.312,-1.172 42.234,2.234 61.813,10.766l1.734,1.188l111.97,111.783l14.281,-14.219l41.798,41.767l-89.329,89.171Z" style="fill:#fff9e9;fill-rule:nonzero;"/></svg>