<?xml version="1.0" standalone="no"?><!DOCTYPE svg PUBLIC "-//W3C//DTD SVG 1.1//EN" "http://www.w3.org/Graphics/SVG/1.1/DTD/svg11.dtd"><svg width="100%" height="100%" viewBox="0 0 1280 800" version="1.1" xmlns="http://www.w3.org/2000/svg" xmlns:xlink="http://www.w3.org/1999/xlink" xml:space="preserve" style="fill-rule:evenodd;clip-rule:evenodd;stroke-linejoin:round;stroke-miterlimit:1.41421;"><g id="bandes"><path d="M0,0l16.874,0l0.788,800l-17.662,0l0,-800ZM51.927,800l-18.37,0l-0.788,-800l18.37,0l0.788,800ZM86.192,800l-18.37,0l-0.787,-800l18.37,0l0.787,800ZM120.458,800l-18.37,0l-0.788,-800l18.37,0l0.788,800ZM154.723,800l-18.37,0l-0.788,-800l18.37,0l0.788,800ZM188.988,800l-18.37,0l-0.787,-800l18.369,0l0.788,800ZM223.254,800l-18.37,0l-0.788,-800l18.37,0l0.788,800ZM257.519,800l-18.37,0l-0.788,-800l18.37,0l0.788,800ZM291.784,800l-18.37,0l-0.788,-800l18.37,0l0.788,800ZM326.049,800l-18.369,0l-0.788,-800l18.37,0l0.787,800ZM360.315,800l-18.37,0l-0.788,-800l18.37,0l0.788,800ZM394.58,800l-18.37,0l-0.788,-800l18.37,0l0.788,800ZM428.845,800l-18.37,0l-0.787,-800l18.37,0l0.787,800ZM463.111,800l-18.37,0l-0.788,-800l18.37,0l0.788,800ZM497.376,800l-18.37,0l-0.788,-800l18.37,0l0.788,800ZM531.641,800l-18.37,0l-0.787,-800l18.37,0l0.787,800ZM565.907,800l-18.37,0l-0.788,-800l18.37,0l0.788,800ZM600.172,800l-18.37,0l-0.788,-800l18.37,0l0.788,800ZM634.437,800l-18.37,0l-0.787,-800l18.37,0l0.787,800ZM668.703,800l-18.37,0l-0.788,-800l18.37,0l0.788,800ZM702.968,800l-18.37,0l-0.788,-800l18.37,0l0.788,800ZM737.233,800l-18.37,0l-0.787,-800l18.369,0l0.788,800ZM771.499,800l-18.37,0l-0.788,-800l18.37,0l0.788,800ZM805.764,800l-18.37,0l-0.788,-800l18.37,0l0.788,800ZM840.029,800l-18.37,0l-0.788,-800l18.37,0l0.788,800ZM874.294,800l-18.369,0l-0.788,-800l18.37,0l0.787,800ZM908.56,800l-18.37,0l-0.788,-800l18.37,0l0.788,800ZM942.825,800l-18.37,0l-0.788,-800l18.37,0l0.788,800ZM977.09,800l-18.37,0l-0.787,-800l18.37,0l0.787,800ZM1011.36,800l-18.37,0l-0.788,-800l18.37,0l0.788,800ZM1045.62,800l-18.37,0l-0.788,-800l18.37,0l0.788,800ZM1079.89,800l-18.37,0l-0.787,-800l18.37,0l0.787,800ZM1114.15,800l-18.37,0l-0.788,-800l18.37,0l0.788,800ZM1148.42,800l-18.37,0l-0.788,-800l18.37,0l0.788,800ZM1182.68,800l-18.37,0l-0.787,-800l18.369,0l0.788,800ZM1216.95,800l-18.37,0l-0.788,-800l18.37,0l0.788,800ZM1251.21,800l-18.37,0l-0.788,-800l18.37,0l0.788,800ZM1280,800l-12.892,0l-0.788,-800l13.68,0l0,800Z" style="fill:#d61818;"/><path d="M0,44.648l0.744,755.352l-0.744,0l0,-755.352ZM35.011,800l-18.37,0l-0.788,-800l18.37,0l0.788,800ZM69.276,800l-18.37,0l-0.787,-800l18.37,0l0.787,800ZM103.542,800l-18.37,0l-0.788,-800l18.37,0l0.788,800ZM137.807,800l-18.37,0l-0.788,-800l18.37,0l0.788,800ZM172.072,800l-18.37,0l-0.787,-800l18.37,0l0.787,800ZM206.338,800l-18.37,0l-0.788,-800l18.37,0l0.788,800ZM240.603,800l-18.37,0l-0.788,-800l18.37,0l0.788,800ZM274.868,800l-18.37,0l-0.787,-800l18.369,0l0.788,800ZM309.134,800l-18.37,0l-0.788,-800l18.37,0l0.788,800ZM343.399,800l-18.37,0l-0.788,-800l18.37,0l0.788,800ZM377.664,800l-18.37,0l-0.788,-800l18.37,0l0.788,800ZM411.93,800l-18.37,0l-0.788,-800l18.37,0l0.788,800ZM446.195,800l-18.37,0l-0.788,-800l18.37,0l0.788,800ZM480.46,800l-18.37,0l-0.788,-800l18.37,0l0.788,800ZM514.725,800l-18.37,0l-0.787,-800l18.37,0l0.787,800ZM548.991,800l-18.37,0l-0.788,-800l18.37,0l0.788,800ZM583.256,800l-18.37,0l-0.788,-800l18.37,0l0.788,800ZM617.521,800l-18.37,0l-0.787,-800l18.37,0l0.787,800ZM651.787,800l-18.37,0l-0.788,-800l18.37,0l0.788,800ZM686.052,800l-18.37,0l-0.788,-800l18.37,0l0.788,800ZM720.317,800l-18.37,0l-0.787,-800l18.37,0l0.787,800ZM754.583,800l-18.37,0l-0.788,-800l18.37,0l0.788,800ZM788.848,800l-18.37,0l-0.788,-800l18.37,0l0.788,800ZM823.113,800l-18.37,0l-0.787,-800l18.369,0l0.788,800ZM857.379,800l-18.37,0l-0.788,-800l18.37,0l0.788,800ZM891.644,800l-18.37,0l-0.788,-800l18.37,0l0.788,800ZM925.909,800l-18.37,0l-0.788,-800l18.37,0l0.788,800ZM960.174,800l-18.369,0l-0.788,-800l18.37,0l0.787,800ZM994.44,800l-18.37,0l-0.788,-800l18.37,0l0.788,800ZM1028.7,800l-18.37,0l-0.788,-800l18.37,0l0.788,800ZM1062.97,800l-18.37,0l-0.787,-800l18.37,0l0.787,800ZM1097.24,800l-18.37,0l-0.788,-800l18.37,0l0.788,800ZM1131.5,800l-18.37,0l-0.788,-800l18.37,0l0.788,800ZM1165.77,800l-18.37,0l-0.787,-800l18.37,0l0.787,800ZM1200.03,800l-18.37,0l-0.788,-800l18.37,0l0.788,800ZM1234.3,800l-18.37,0l-0.788,-800l18.37,0l0.788,800ZM1268.56,800l-18.37,0l-0.787,-800l18.369,0l0.788,800Z" style="fill:#bc2222;"/></g></svg>